<?xml version="1.0" encoding="UTF-8"?>
<svg xmlns="http://www.w3.org/2000/svg" xmlns:xlink="http://www.w3.org/1999/xlink" width="344.27pt" height="128.56pt" viewBox="0 0 344.27 128.56">
<defs>
<g>
<g id="glyph-0-0">
<path d="M 4.359375 -1.25 C 4.359375 -1.359375 4.25 -1.359375 4.21875 -1.359375 C 4.125 -1.359375 4.109375 -1.3125 4.078125 -1.25 C 3.78125 -0.265625 3.09375 -0.140625 2.703125 -0.140625 C 2.15625 -0.140625 1.234375 -0.59375 1.234375 -2.28125 C 1.234375 -4 2.09375 -4.4375 2.640625 -4.4375 C 2.734375 -4.4375 3.40625 -4.4375 3.765625 -4.046875 C 3.34375 -4.015625 3.28125 -3.703125 3.28125 -3.5625 C 3.28125 -3.296875 3.46875 -3.09375 3.765625 -3.09375 C 4.03125 -3.09375 4.234375 -3.265625 4.234375 -3.578125 C 4.234375 -4.296875 3.4375 -4.703125 2.640625 -4.703125 C 1.328125 -4.703125 0.359375 -3.5625 0.359375 -2.265625 C 0.359375 -0.921875 1.390625 0.109375 2.609375 0.109375 C 4.015625 0.109375 4.359375 -1.140625 4.359375 -1.25 Z M 4.359375 -1.25 "/>
</g>
<g id="glyph-0-1">
<path d="M 4.953125 -2.25 C 4.953125 -3.59375 3.890625 -4.703125 2.625 -4.703125 C 1.3125 -4.703125 0.296875 -3.5625 0.296875 -2.25 C 0.296875 -0.890625 1.390625 0.109375 2.609375 0.109375 C 3.890625 0.109375 4.953125 -0.90625 4.953125 -2.25 Z M 4.078125 -2.328125 C 4.078125 -1.953125 4.078125 -1.390625 3.84375 -0.921875 C 3.609375 -0.453125 3.15625 -0.140625 2.625 -0.140625 C 2.171875 -0.140625 1.71875 -0.375 1.421875 -0.84375 C 1.171875 -1.3125 1.171875 -1.953125 1.171875 -2.328125 C 1.171875 -2.734375 1.171875 -3.3125 1.421875 -3.765625 C 1.703125 -4.25 2.1875 -4.46875 2.609375 -4.46875 C 3.078125 -4.46875 3.53125 -4.234375 3.796875 -3.796875 C 4.078125 -3.34375 4.078125 -2.734375 4.078125 -2.328125 Z M 4.078125 -2.328125 "/>
</g>
<g id="glyph-0-2">
<path d="M 5.359375 0 L 5.359375 -0.328125 C 4.984375 -0.328125 4.75 -0.328125 4.34375 -0.875 L 3.015625 -2.765625 C 3 -2.78125 2.953125 -2.84375 2.953125 -2.875 C 2.953125 -2.921875 3.703125 -3.546875 3.796875 -3.640625 C 4.46875 -4.171875 4.90625 -4.1875 5.125 -4.203125 L 5.125 -4.53125 C 4.8125 -4.5 4.6875 -4.5 4.390625 -4.5 C 4.015625 -4.5 3.359375 -4.515625 3.21875 -4.53125 L 3.21875 -4.203125 C 3.40625 -4.1875 3.515625 -4.078125 3.515625 -3.9375 C 3.515625 -3.734375 3.375 -3.59375 3.28125 -3.53125 L 1.8125 -2.25 L 1.8125 -7.28125 L 0.296875 -7.171875 L 0.296875 -6.84375 C 1.03125 -6.84375 1.109375 -6.765625 1.109375 -6.265625 L 1.109375 -0.796875 C 1.109375 -0.328125 1 -0.328125 0.296875 -0.328125 L 0.296875 0 L 1.4375 -0.03125 L 2.59375 0 L 2.59375 -0.328125 C 1.890625 -0.328125 1.78125 -0.328125 1.78125 -0.796875 L 1.78125 -1.875 L 2.453125 -2.453125 C 3.25 -1.34375 3.703125 -0.75 3.703125 -0.5625 C 3.703125 -0.375 3.515625 -0.328125 3.3125 -0.328125 L 3.3125 0 L 4.453125 -0.03125 C 4.75 -0.03125 5.0625 -0.015625 5.359375 0 Z M 5.359375 0 "/>
</g>
<g id="glyph-0-3">
<path d="M 4.359375 -1.25 C 4.359375 -1.359375 4.28125 -1.375 4.21875 -1.375 C 4.125 -1.375 4.109375 -1.3125 4.078125 -1.234375 C 3.71875 -0.140625 2.765625 -0.140625 2.671875 -0.140625 C 2.140625 -0.140625 1.71875 -0.46875 1.484375 -0.84375 C 1.171875 -1.359375 1.171875 -2.046875 1.171875 -2.421875 L 4.09375 -2.421875 C 4.328125 -2.421875 4.359375 -2.421875 4.359375 -2.640625 C 4.359375 -3.6875 3.796875 -4.703125 2.484375 -4.703125 C 1.265625 -4.703125 0.296875 -3.625 0.296875 -2.3125 C 0.296875 -0.90625 1.390625 0.109375 2.609375 0.109375 C 3.890625 0.109375 4.359375 -1.046875 4.359375 -1.25 Z M 3.671875 -2.640625 L 1.171875 -2.640625 C 1.234375 -4.203125 2.125 -4.46875 2.484375 -4.46875 C 3.5625 -4.46875 3.671875 -3.0625 3.671875 -2.640625 Z M 3.671875 -2.640625 "/>
</g>
<g id="glyph-0-4">
<path d="M 3.828125 -4 C 3.828125 -4.34375 3.5 -4.640625 3.046875 -4.640625 C 2.28125 -4.640625 1.90625 -3.9375 1.75 -3.484375 L 1.75 -4.640625 L 0.296875 -4.53125 L 0.296875 -4.203125 C 1.03125 -4.203125 1.109375 -4.125 1.109375 -3.609375 L 1.109375 -0.796875 C 1.109375 -0.328125 1 -0.328125 0.296875 -0.328125 L 0.296875 0 L 1.484375 -0.03125 C 1.90625 -0.03125 2.40625 -0.03125 2.828125 0 L 2.828125 -0.328125 L 2.609375 -0.328125 C 1.828125 -0.328125 1.8125 -0.4375 1.8125 -0.8125 L 1.8125 -2.4375 C 1.8125 -3.46875 2.25 -4.40625 3.046875 -4.40625 C 3.125 -4.40625 3.140625 -4.40625 3.15625 -4.40625 C 3.125 -4.390625 2.921875 -4.265625 2.921875 -3.984375 C 2.921875 -3.703125 3.140625 -3.53125 3.375 -3.53125 C 3.5625 -3.53125 3.828125 -3.671875 3.828125 -4 Z M 3.828125 -4 "/>
</g>
<g id="glyph-0-5">
<path d="M 7.734375 0 L 7.734375 -0.328125 C 7.15625 -0.328125 6.9375 -0.375 6.625 -0.828125 L 4.203125 -4.40625 L 6.09375 -6.21875 C 6.171875 -6.296875 6.734375 -6.828125 7.578125 -6.84375 L 7.578125 -7.171875 C 7.3125 -7.140625 6.96875 -7.140625 6.6875 -7.140625 C 6.3125 -7.140625 5.71875 -7.140625 5.359375 -7.171875 L 5.359375 -6.84375 C 5.78125 -6.828125 5.84375 -6.59375 5.84375 -6.5 C 5.84375 -6.328125 5.734375 -6.21875 5.65625 -6.15625 L 2.359375 -3.015625 L 2.359375 -6.359375 C 2.359375 -6.734375 2.390625 -6.84375 3.1875 -6.84375 L 3.4375 -6.84375 L 3.4375 -7.171875 C 3.078125 -7.140625 2.296875 -7.140625 1.90625 -7.140625 C 1.5 -7.140625 0.71875 -7.140625 0.34375 -7.171875 L 0.34375 -6.84375 L 0.59375 -6.84375 C 1.40625 -6.84375 1.421875 -6.734375 1.421875 -6.359375 L 1.421875 -0.8125 C 1.421875 -0.4375 1.40625 -0.328125 0.59375 -0.328125 L 0.34375 -0.328125 L 0.34375 0 C 0.71875 -0.03125 1.484375 -0.03125 1.890625 -0.03125 C 2.28125 -0.03125 3.078125 -0.03125 3.4375 0 L 3.4375 -0.328125 L 3.1875 -0.328125 C 2.390625 -0.328125 2.359375 -0.4375 2.359375 -0.8125 L 2.359375 -2.65625 L 3.578125 -3.8125 L 5.484375 -1 C 5.546875 -0.90625 5.640625 -0.765625 5.640625 -0.640625 C 5.640625 -0.328125 5.234375 -0.328125 5.015625 -0.328125 L 5.015625 0 C 5.390625 -0.03125 6.125 -0.03125 6.515625 -0.03125 Z M 7.734375 0 "/>
</g>
<g id="glyph-0-6">
<path d="M 3.5 0 L 3.5 -0.328125 L 3.21875 -0.328125 C 2.390625 -0.328125 2.359375 -0.4375 2.359375 -0.8125 L 2.359375 -6.359375 C 2.359375 -6.734375 2.390625 -6.84375 3.21875 -6.84375 L 3.5 -6.84375 L 3.5 -7.171875 C 3.125 -7.140625 2.296875 -7.140625 1.90625 -7.140625 C 1.484375 -7.140625 0.65625 -7.140625 0.296875 -7.171875 L 0.296875 -6.84375 L 0.5625 -6.84375 C 1.390625 -6.84375 1.421875 -6.734375 1.421875 -6.359375 L 1.421875 -0.8125 C 1.421875 -0.4375 1.390625 -0.328125 0.5625 -0.328125 L 0.296875 -0.328125 L 0.296875 0 C 0.65625 -0.03125 1.484375 -0.03125 1.890625 -0.03125 C 2.296875 -0.03125 3.125 -0.03125 3.5 0 Z M 3.5 0 "/>
</g>
<g id="glyph-0-7">
<path d="M 8.53125 0 L 8.53125 -0.328125 C 7.984375 -0.328125 7.734375 -0.328125 7.71875 -0.640625 L 7.71875 -2.640625 C 7.71875 -3.546875 7.71875 -3.875 7.390625 -4.25 C 7.25 -4.4375 6.90625 -4.640625 6.296875 -4.640625 C 5.40625 -4.640625 4.953125 -4.015625 4.765625 -3.609375 C 4.625 -4.53125 3.84375 -4.640625 3.375 -4.640625 C 2.609375 -4.640625 2.109375 -4.1875 1.8125 -3.53125 L 1.8125 -4.640625 L 0.34375 -4.53125 L 0.34375 -4.203125 C 1.078125 -4.203125 1.15625 -4.125 1.15625 -3.609375 L 1.15625 -0.796875 C 1.15625 -0.328125 1.046875 -0.328125 0.34375 -0.328125 L 0.34375 0 L 1.515625 -0.03125 L 2.703125 0 L 2.703125 -0.328125 C 2 -0.328125 1.875 -0.328125 1.875 -0.796875 L 1.875 -2.734375 C 1.875 -3.828125 2.625 -4.40625 3.296875 -4.40625 C 3.953125 -4.40625 4.078125 -3.84375 4.078125 -3.25 L 4.078125 -0.796875 C 4.078125 -0.328125 3.953125 -0.328125 3.25 -0.328125 L 3.25 0 L 4.4375 -0.03125 L 5.625 0 L 5.625 -0.328125 C 4.90625 -0.328125 4.796875 -0.328125 4.796875 -0.796875 L 4.796875 -2.734375 C 4.796875 -3.828125 5.546875 -4.40625 6.21875 -4.40625 C 6.875 -4.40625 7 -3.84375 7 -3.25 L 7 -0.796875 C 7 -0.328125 6.875 -0.328125 6.171875 -0.328125 L 6.171875 0 L 7.359375 -0.03125 Z M 8.53125 0 "/>
</g>
<g id="glyph-1-0">
<path d="M 3.015625 -7.171875 C 3.015625 -7.1875 3.015625 -7.28125 2.875 -7.28125 C 2.640625 -7.28125 1.875 -7.203125 1.59375 -7.1875 C 1.515625 -7.171875 1.390625 -7.15625 1.390625 -6.96875 C 1.390625 -6.84375 1.484375 -6.84375 1.65625 -6.84375 C 2.15625 -6.84375 2.171875 -6.765625 2.171875 -6.671875 L 2.140625 -6.453125 L 0.625 -0.40625 C 0.578125 -0.265625 0.578125 -0.234375 0.578125 -0.171875 C 0.578125 0.0625 0.78125 0.109375 0.875 0.109375 C 1.046875 0.109375 1.21875 -0.015625 1.265625 -0.15625 L 1.46875 -0.953125 L 1.703125 -1.90625 C 1.765625 -2.125 1.828125 -2.359375 1.875 -2.609375 C 1.90625 -2.671875 1.984375 -3.015625 2 -3.078125 C 2.03125 -3.171875 2.359375 -3.765625 2.703125 -4.046875 C 2.9375 -4.203125 3.265625 -4.40625 3.71875 -4.40625 C 4.171875 -4.40625 4.28125 -4.046875 4.28125 -3.671875 C 4.28125 -3.109375 3.890625 -1.96875 3.640625 -1.328125 C 3.546875 -1.078125 3.5 -0.953125 3.5 -0.75 C 3.5 -0.25 3.859375 0.109375 4.359375 0.109375 C 5.34375 0.109375 5.734375 -1.421875 5.734375 -1.5 C 5.734375 -1.609375 5.640625 -1.609375 5.609375 -1.609375 C 5.5 -1.609375 5.5 -1.578125 5.453125 -1.421875 C 5.296875 -0.859375 4.953125 -0.109375 4.375 -0.109375 C 4.203125 -0.109375 4.125 -0.21875 4.125 -0.46875 C 4.125 -0.71875 4.21875 -0.96875 4.3125 -1.203125 C 4.484375 -1.65625 4.953125 -2.90625 4.953125 -3.515625 C 4.953125 -4.203125 4.53125 -4.640625 3.75 -4.640625 C 3.09375 -4.640625 2.578125 -4.3125 2.1875 -3.828125 Z M 3.015625 -7.171875 "/>
</g>
<g id="glyph-1-1">
<path d="M 4.953125 -3.953125 C 4.953125 -4.015625 4.984375 -4.078125 4.984375 -4.140625 C 4.984375 -4.328125 4.84375 -4.4375 4.671875 -4.4375 C 4.5625 -4.4375 4.28125 -4.359375 4.234375 -3.984375 C 4.046875 -4.375 3.6875 -4.640625 3.265625 -4.640625 C 2.0625 -4.640625 0.765625 -3.171875 0.765625 -1.65625 C 0.765625 -0.625 1.40625 0 2.15625 0 C 2.78125 0 3.28125 -0.5 3.375 -0.609375 L 3.390625 -0.59375 C 3.171875 0.34375 3.046875 0.765625 3.046875 0.78125 C 3 0.875 2.640625 1.921875 1.53125 1.921875 C 1.328125 1.921875 0.984375 1.90625 0.6875 1.8125 C 1.015625 1.71875 1.125 1.453125 1.125 1.265625 C 1.125 1.109375 1.015625 0.90625 0.71875 0.90625 C 0.5 0.90625 0.15625 1.09375 0.15625 1.515625 C 0.15625 1.9375 0.546875 2.15625 1.546875 2.15625 C 2.859375 2.15625 3.625 1.328125 3.78125 0.703125 Z M 3.578125 -1.34375 C 3.515625 -1.078125 3.28125 -0.8125 3.046875 -0.609375 C 2.828125 -0.421875 2.5 -0.234375 2.1875 -0.234375 C 1.671875 -0.234375 1.515625 -0.78125 1.515625 -1.203125 C 1.515625 -1.703125 1.8125 -2.9375 2.09375 -3.46875 C 2.390625 -3.984375 2.828125 -4.40625 3.28125 -4.40625 C 3.96875 -4.40625 4.109375 -3.5625 4.109375 -3.5 C 4.109375 -3.453125 4.09375 -3.390625 4.078125 -3.34375 Z M 3.578125 -1.34375 "/>
</g>
<g id="glyph-1-2">
<path d="M 7.5625 -6.921875 C 7.578125 -6.96875 7.59375 -7.015625 7.59375 -7.078125 C 7.59375 -7.171875 7.53125 -7.171875 7.328125 -7.171875 L 2.890625 -7.171875 C 2.640625 -7.171875 2.640625 -7.15625 2.578125 -6.96875 L 2 -5.078125 C 1.96875 -5.015625 1.96875 -4.953125 1.96875 -4.921875 C 1.96875 -4.90625 1.96875 -4.8125 2.09375 -4.8125 C 2.1875 -4.8125 2.203125 -4.875 2.21875 -4.90625 C 2.625 -6.15625 3.171875 -6.84375 4.8125 -6.84375 L 6.515625 -6.84375 L 0.65625 -0.28125 C 0.65625 -0.265625 0.609375 -0.125 0.609375 -0.09375 C 0.609375 0 0.6875 0 0.875 0 L 5.4375 0 C 5.6875 0 5.703125 -0.015625 5.765625 -0.203125 L 6.515625 -2.53125 C 6.515625 -2.578125 6.546875 -2.640625 6.546875 -2.6875 C 6.546875 -2.734375 6.515625 -2.796875 6.421875 -2.796875 C 6.328125 -2.796875 6.3125 -2.765625 6.234375 -2.546875 C 5.78125 -1.109375 5.265625 -0.359375 3.484375 -0.359375 L 1.6875 -0.359375 Z M 7.5625 -6.921875 "/>
</g>
<g id="glyph-1-3">
<path d="M 6.265625 -5.96875 L 6.421875 -6.125 C 6.734375 -6.4375 7.078125 -6.796875 7.796875 -6.84375 C 7.90625 -6.859375 8 -6.859375 8 -7.046875 C 8 -7.125 7.953125 -7.171875 7.859375 -7.171875 C 7.59375 -7.171875 7.28125 -7.140625 7 -7.140625 C 6.65625 -7.140625 6.296875 -7.171875 5.953125 -7.171875 C 5.890625 -7.171875 5.75 -7.171875 5.75 -6.96875 C 5.75 -6.859375 5.859375 -6.84375 5.90625 -6.84375 C 5.984375 -6.84375 6.296875 -6.828125 6.296875 -6.609375 C 6.296875 -6.421875 6.046875 -6.15625 6 -6.09375 L 3.5625 -3.296875 L 2.421875 -6.421875 C 2.359375 -6.5625 2.359375 -6.578125 2.359375 -6.59375 C 2.359375 -6.84375 2.859375 -6.84375 2.96875 -6.84375 C 3.125 -6.84375 3.21875 -6.84375 3.21875 -7.0625 C 3.21875 -7.171875 3.09375 -7.171875 3.0625 -7.171875 C 2.765625 -7.171875 2.03125 -7.140625 1.75 -7.140625 C 1.484375 -7.140625 0.828125 -7.171875 0.5625 -7.171875 C 0.5 -7.171875 0.375 -7.171875 0.375 -6.96875 C 0.375 -6.84375 0.46875 -6.84375 0.609375 -6.84375 C 1.234375 -6.84375 1.28125 -6.75 1.375 -6.484375 L 2.671875 -3.03125 C 2.671875 -3 2.703125 -2.890625 2.703125 -2.859375 C 2.703125 -2.828125 2.28125 -1.140625 2.234375 -0.9375 C 2.09375 -0.375 2.09375 -0.34375 1.25 -0.328125 C 1.046875 -0.328125 0.96875 -0.328125 0.96875 -0.109375 C 0.96875 0 1.09375 0 1.109375 0 C 1.40625 0 2.140625 -0.03125 2.4375 -0.03125 C 2.734375 -0.03125 3.484375 0 3.78125 0 C 3.859375 0 3.984375 0 3.984375 -0.203125 C 3.984375 -0.328125 3.890625 -0.328125 3.6875 -0.328125 C 3.671875 -0.328125 3.46875 -0.328125 3.28125 -0.34375 C 3.0625 -0.375 3 -0.390625 3 -0.515625 C 3 -0.59375 3.09375 -0.953125 3.15625 -1.171875 L 3.515625 -2.65625 C 3.5625 -2.859375 3.578125 -2.890625 3.671875 -2.984375 Z M 6.265625 -5.96875 "/>
</g>
<g id="glyph-1-4">
<path d="M 5.09375 -4.3125 L 4.203125 -6.40625 C 4.171875 -6.484375 4.15625 -6.53125 4.15625 -6.546875 C 4.15625 -6.609375 4.34375 -6.796875 4.78125 -6.84375 C 4.875 -6.859375 4.984375 -6.859375 4.984375 -7.046875 C 4.984375 -7.171875 4.859375 -7.171875 4.828125 -7.171875 C 4.40625 -7.171875 3.953125 -7.140625 3.5 -7.140625 C 3.25 -7.140625 2.59375 -7.171875 2.328125 -7.171875 C 2.265625 -7.171875 2.140625 -7.171875 2.140625 -6.96875 C 2.140625 -6.84375 2.25 -6.84375 2.390625 -6.84375 C 3.015625 -6.84375 3.078125 -6.734375 3.171875 -6.515625 L 4.40625 -3.578125 L 2.1875 -1.203125 L 2.0625 -1.078125 C 1.546875 -0.53125 1.046875 -0.359375 0.515625 -0.328125 C 0.375 -0.3125 0.28125 -0.3125 0.28125 -0.109375 C 0.28125 -0.109375 0.28125 0 0.421875 0 C 0.734375 0 1.078125 -0.03125 1.40625 -0.03125 C 1.796875 -0.03125 2.203125 0 2.578125 0 C 2.640625 0 2.765625 0 2.765625 -0.203125 C 2.765625 -0.3125 2.671875 -0.328125 2.640625 -0.328125 C 2.546875 -0.34375 2.21875 -0.359375 2.21875 -0.65625 C 2.21875 -0.8125 2.390625 -0.984375 2.515625 -1.125 L 3.578125 -2.25 L 4.53125 -3.28125 L 5.59375 -0.78125 C 5.625 -0.65625 5.640625 -0.65625 5.640625 -0.625 C 5.640625 -0.546875 5.4375 -0.375 5.03125 -0.328125 C 4.90625 -0.3125 4.8125 -0.296875 4.8125 -0.125 C 4.8125 0 4.9375 0 4.984375 0 C 5.265625 0 6 -0.03125 6.296875 -0.03125 C 6.5625 -0.03125 7.203125 0 7.46875 0 C 7.53125 0 7.671875 0 7.671875 -0.203125 C 7.671875 -0.328125 7.5625 -0.328125 7.46875 -0.328125 C 6.765625 -0.34375 6.75 -0.375 6.578125 -0.78125 C 6.15625 -1.765625 5.453125 -3.40625 5.21875 -4.03125 C 5.9375 -4.765625 7.03125 -6.015625 7.375 -6.3125 C 7.671875 -6.5625 8.078125 -6.8125 8.703125 -6.84375 C 8.84375 -6.859375 8.9375 -6.859375 8.9375 -7.0625 C 8.9375 -7.0625 8.9375 -7.171875 8.796875 -7.171875 C 8.484375 -7.171875 8.140625 -7.140625 7.8125 -7.140625 C 7.421875 -7.140625 7.03125 -7.171875 6.640625 -7.171875 C 6.578125 -7.171875 6.453125 -7.171875 6.453125 -6.96875 C 6.453125 -6.890625 6.5 -6.859375 6.578125 -6.84375 C 6.671875 -6.828125 7 -6.8125 7 -6.515625 C 7 -6.375 6.875 -6.234375 6.796875 -6.140625 Z M 5.09375 -4.3125 "/>
</g>
<g id="glyph-2-0">
<path d="M 3.046875 -2.671875 C 2.796875 -2.625 2.703125 -2.4375 2.703125 -2.28125 C 2.703125 -2.09375 2.84375 -2.015625 2.96875 -2.015625 C 3.125 -2.015625 3.359375 -2.125 3.359375 -2.46875 C 3.359375 -2.9375 2.828125 -3.078125 2.453125 -3.078125 C 1.40625 -3.078125 0.4375 -2.109375 0.4375 -1.140625 C 0.4375 -0.546875 0.84375 0.0625 1.71875 0.0625 C 2.90625 0.0625 3.453125 -0.625 3.453125 -0.71875 C 3.453125 -0.765625 3.390625 -0.84375 3.328125 -0.84375 C 3.296875 -0.84375 3.28125 -0.828125 3.21875 -0.765625 C 2.671875 -0.125 1.859375 -0.125 1.734375 -0.125 C 1.234375 -0.125 1.015625 -0.46875 1.015625 -0.90625 C 1.015625 -1.09375 1.109375 -1.859375 1.46875 -2.34375 C 1.734375 -2.6875 2.09375 -2.875 2.453125 -2.875 C 2.546875 -2.875 2.875 -2.859375 3.046875 -2.671875 Z M 3.046875 -2.671875 "/>
</g>
<g id="glyph-2-1">
<path d="M 2.1875 -4.625 C 2.1875 -4.640625 2.203125 -4.734375 2.203125 -4.734375 C 2.203125 -4.78125 2.1875 -4.84375 2.09375 -4.84375 C 1.953125 -4.84375 1.375 -4.78125 1.203125 -4.765625 C 1.15625 -4.765625 1.046875 -4.75 1.046875 -4.609375 C 1.046875 -4.515625 1.15625 -4.515625 1.234375 -4.515625 C 1.5625 -4.515625 1.5625 -4.453125 1.5625 -4.40625 C 1.5625 -4.359375 1.546875 -4.3125 1.546875 -4.25 L 0.5625 -0.3125 C 0.515625 -0.1875 0.515625 -0.171875 0.515625 -0.15625 C 0.515625 -0.046875 0.609375 0.0625 0.765625 0.0625 C 0.953125 0.0625 1.03125 -0.0625 1.078125 -0.21875 C 1.09375 -0.25 1.390625 -1.484375 1.421875 -1.578125 C 1.921875 -1.53125 2.3125 -1.359375 2.3125 -1 C 2.3125 -0.96875 2.3125 -0.9375 2.296875 -0.859375 C 2.265625 -0.765625 2.265625 -0.71875 2.265625 -0.640625 C 2.265625 -0.15625 2.671875 0.0625 3.015625 0.0625 C 3.6875 0.0625 3.890625 -0.984375 3.890625 -1 C 3.890625 -1.09375 3.8125 -1.09375 3.78125 -1.09375 C 3.6875 -1.09375 3.671875 -1.046875 3.640625 -0.921875 C 3.5625 -0.625 3.375 -0.125 3.03125 -0.125 C 2.84375 -0.125 2.78125 -0.296875 2.78125 -0.484375 C 2.78125 -0.609375 2.78125 -0.625 2.828125 -0.796875 C 2.84375 -0.828125 2.859375 -0.9375 2.859375 -1.015625 C 2.859375 -1.640625 2.03125 -1.734375 1.734375 -1.75 C 1.9375 -1.875 2.1875 -2.109375 2.3125 -2.21875 C 2.671875 -2.546875 3.015625 -2.875 3.40625 -2.875 C 3.484375 -2.875 3.578125 -2.859375 3.640625 -2.78125 C 3.34375 -2.734375 3.28125 -2.5 3.28125 -2.390625 C 3.28125 -2.25 3.390625 -2.140625 3.546875 -2.140625 C 3.75 -2.140625 3.953125 -2.296875 3.953125 -2.578125 C 3.953125 -2.8125 3.78125 -3.078125 3.421875 -3.078125 C 3.015625 -3.078125 2.65625 -2.78125 2.296875 -2.453125 C 2 -2.1875 1.78125 -1.96875 1.484375 -1.84375 Z M 2.1875 -4.625 "/>
</g>
<g id="glyph-2-2">
<path d="M 2.1875 -4.625 C 2.1875 -4.640625 2.203125 -4.734375 2.203125 -4.734375 C 2.203125 -4.78125 2.1875 -4.84375 2.09375 -4.84375 C 1.953125 -4.84375 1.375 -4.78125 1.203125 -4.765625 C 1.15625 -4.765625 1.046875 -4.75 1.046875 -4.609375 C 1.046875 -4.515625 1.15625 -4.515625 1.234375 -4.515625 C 1.5625 -4.515625 1.5625 -4.453125 1.5625 -4.40625 C 1.5625 -4.359375 1.546875 -4.3125 1.546875 -4.25 L 0.5625 -0.3125 C 0.515625 -0.1875 0.515625 -0.171875 0.515625 -0.15625 C 0.515625 -0.046875 0.609375 0.0625 0.765625 0.0625 C 0.84375 0.0625 0.96875 0.03125 1.046875 -0.109375 C 1.0625 -0.15625 1.125 -0.40625 1.15625 -0.546875 L 1.328125 -1.171875 C 1.34375 -1.28125 1.421875 -1.546875 1.4375 -1.640625 C 1.5 -1.90625 1.5 -1.921875 1.640625 -2.140625 C 1.875 -2.484375 2.21875 -2.875 2.765625 -2.875 C 3.15625 -2.875 3.171875 -2.5625 3.171875 -2.390625 C 3.171875 -1.96875 2.875 -1.203125 2.765625 -0.90625 C 2.6875 -0.703125 2.65625 -0.640625 2.65625 -0.53125 C 2.65625 -0.15625 2.96875 0.0625 3.3125 0.0625 C 4.015625 0.0625 4.328125 -0.890625 4.328125 -1 C 4.328125 -1.09375 4.234375 -1.09375 4.203125 -1.09375 C 4.109375 -1.09375 4.109375 -1.046875 4.078125 -0.96875 C 3.921875 -0.40625 3.609375 -0.125 3.34375 -0.125 C 3.1875 -0.125 3.15625 -0.21875 3.15625 -0.375 C 3.15625 -0.53125 3.203125 -0.625 3.328125 -0.9375 C 3.40625 -1.15625 3.6875 -1.890625 3.6875 -2.28125 C 3.6875 -2.390625 3.6875 -2.6875 3.4375 -2.890625 C 3.3125 -2.96875 3.109375 -3.078125 2.78125 -3.078125 C 2.28125 -3.078125 1.90625 -2.796875 1.65625 -2.5 Z M 2.1875 -4.625 "/>
</g>
<g id="glyph-2-3">
<path d="M 3.703125 -2.578125 C 3.734375 -2.671875 3.734375 -2.703125 3.734375 -2.71875 C 3.734375 -2.875 3.609375 -2.9375 3.5 -2.9375 C 3.34375 -2.9375 3.203125 -2.8125 3.171875 -2.671875 C 3.0625 -2.859375 2.828125 -3.078125 2.453125 -3.078125 C 1.59375 -3.078125 0.671875 -2.140625 0.671875 -1.140625 C 0.671875 -0.421875 1.15625 0 1.734375 0 C 2.0625 0 2.359375 -0.15625 2.609375 -0.375 L 2.453125 0.25 C 2.375 0.546875 2.328125 0.734375 2.0625 0.96875 C 1.75 1.21875 1.453125 1.21875 1.28125 1.21875 C 0.96875 1.21875 0.875 1.203125 0.75 1.171875 C 0.921875 1.09375 0.96875 0.921875 0.96875 0.828125 C 0.96875 0.65625 0.84375 0.578125 0.703125 0.578125 C 0.5 0.578125 0.296875 0.734375 0.296875 1 C 0.296875 1.421875 0.90625 1.421875 1.296875 1.421875 C 2.390625 1.421875 2.84375 0.859375 2.953125 0.46875 Z M 2.75 -0.921875 C 2.71875 -0.828125 2.71875 -0.8125 2.59375 -0.671875 C 2.359375 -0.375 2.015625 -0.1875 1.75 -0.1875 C 1.40625 -0.1875 1.234375 -0.5 1.234375 -0.859375 C 1.234375 -1.15625 1.421875 -1.9375 1.609375 -2.25 C 1.890625 -2.734375 2.21875 -2.875 2.453125 -2.875 C 2.953125 -2.875 3.078125 -2.359375 3.078125 -2.28125 C 3.078125 -2.265625 3.078125 -2.265625 3.0625 -2.1875 Z M 2.75 -0.921875 "/>
</g>
<g id="glyph-3-0">
<path d="M 1.796875 -2.3125 C 1.796875 -2.328125 1.84375 -2.421875 1.84375 -2.5 C 1.84375 -2.671875 1.6875 -2.78125 1.53125 -2.78125 C 1.328125 -2.78125 1.28125 -2.625 1.25 -2.5625 L 0.484375 -0.40625 C 0.46875 -0.34375 0.46875 -0.328125 0.46875 -0.3125 C 0.46875 -0.234375 0.671875 -0.1875 0.671875 -0.1875 C 0.71875 -0.1875 0.734375 -0.21875 0.765625 -0.28125 Z M 1.796875 -2.3125 "/>
</g>
</g>
</defs>
<g fill="rgb(0%, 0%, 0%)" fill-opacity="1">
<use xlink:href="#glyph-0-0" x="181.313" y="13.136"/>
<use xlink:href="#glyph-0-1" x="185.975" y="13.136"/>
<use xlink:href="#glyph-0-2" x="191.225" y="13.136"/>
<use xlink:href="#glyph-0-3" x="196.769" y="13.136"/>
<use xlink:href="#glyph-0-4" x="201.431" y="13.136"/>
</g>
<g fill="rgb(0%, 0%, 0%)" fill-opacity="1">
<use xlink:href="#glyph-1-0" x="205.547" y="13.136"/>
</g>
<g fill="rgb(0%, 0%, 0%)" fill-opacity="1">
<use xlink:href="#glyph-0-0" x="304.071" y="13.136"/>
<use xlink:href="#glyph-0-1" x="308.733" y="13.136"/>
<use xlink:href="#glyph-0-2" x="313.983" y="13.136"/>
<use xlink:href="#glyph-0-3" x="319.527" y="13.136"/>
<use xlink:href="#glyph-0-4" x="324.189" y="13.136"/>
</g>
<g fill="rgb(0%, 0%, 0%)" fill-opacity="1">
<use xlink:href="#glyph-1-1" x="328.305" y="13.136"/>
</g>
<g fill="rgb(0%, 0%, 0%)" fill-opacity="1">
<use xlink:href="#glyph-1-0" x="333.6705" y="13.136"/>
</g>
<g fill="rgb(0%, 0%, 0%)" fill-opacity="1">
<use xlink:href="#glyph-0-5" x="4.524" y="67.846"/>
<use xlink:href="#glyph-0-3" x="12.693" y="67.846"/>
<use xlink:href="#glyph-0-4" x="17.355" y="67.846"/>
</g>
<g fill="rgb(0%, 0%, 0%)" fill-opacity="1">
<use xlink:href="#glyph-1-1" x="21.471" y="67.846"/>
</g>
<g fill="rgb(0%, 0%, 0%)" fill-opacity="1">
<use xlink:href="#glyph-1-2" x="86.307" y="67.846"/>
</g>
<g fill="rgb(0%, 0%, 0%)" fill-opacity="1">
<use xlink:href="#glyph-1-3" x="192.24" y="67.846"/>
</g>
<g fill="rgb(0%, 0%, 0%)" fill-opacity="1">
<use xlink:href="#glyph-1-4" x="317.144" y="67.846"/>
</g>
<g fill="rgb(0%, 0%, 0%)" fill-opacity="1">
<use xlink:href="#glyph-0-6" x="128.476" y="122.673"/>
<use xlink:href="#glyph-0-7" x="132.2665" y="122.673"/>
</g>
<g fill="rgb(0%, 0%, 0%)" fill-opacity="1">
<use xlink:href="#glyph-1-0" x="141.013" y="122.673"/>
</g>
<g fill="rgb(0%, 0%, 0%)" fill-opacity="1">
<use xlink:href="#glyph-0-6" x="245.848" y="122.673"/>
<use xlink:href="#glyph-0-7" x="249.6385" y="122.673"/>
</g>
<g fill="rgb(0%, 0%, 0%)" fill-opacity="1">
<use xlink:href="#glyph-1-1" x="258.385" y="122.673"/>
</g>
<g fill="rgb(0%, 0%, 0%)" fill-opacity="1">
<use xlink:href="#glyph-1-0" x="263.7505" y="122.673"/>
</g>
<path fill="none" stroke-width="0.41998" stroke-linecap="butt" stroke-linejoin="miter" stroke="rgb(0%, 0%, 0%)" stroke-opacity="1" stroke-dasharray="2.93988 1.67993" stroke-miterlimit="10" d="M 44.191219 54.767281 L 126.796688 54.767281 " transform="matrix(1, 0, 0, -1, 172.133, 65.279)"/>
<path fill="none" stroke-width="0.41998" stroke-linecap="round" stroke-linejoin="round" stroke="rgb(0%, 0%, 0%)" stroke-opacity="1" stroke-miterlimit="10" d="M -2.181999 2.521649 C -1.783561 1.006024 -0.896842 0.295086 0.001595 -0.00178875 C -0.896842 -0.294757 -1.783561 -1.009601 -2.181999 -2.52132 " transform="matrix(1, 0, 0, -1, 299.13903, 10.50993)"/>
<g fill="rgb(0%, 0%, 0%)" fill-opacity="1">
<use xlink:href="#glyph-2-0" x="254.709" y="8.037"/>
</g>
<g fill="rgb(0%, 0%, 0%)" fill-opacity="1">
<use xlink:href="#glyph-3-0" x="258.27" y="5.03"/>
</g>
<path fill="none" stroke-width="0.41998" stroke-linecap="butt" stroke-linejoin="miter" stroke="rgb(0%, 0%, 0%)" stroke-opacity="1" stroke-miterlimit="10" d="M -139.03925 0.06025 L -90.968937 0.06025 " transform="matrix(1, 0, 0, -1, 172.133, 65.279)"/>
<path fill="none" stroke-width="0.41998" stroke-linecap="round" stroke-linejoin="miter" stroke="rgb(0%, 0%, 0%)" stroke-opacity="1" stroke-miterlimit="10" d="M -0.00165 2.056608 C 0.7171 2.056608 1.303037 1.59567 1.303037 1.029264 C 1.303037 0.458951 0.7171 0.00192 -0.00165 0.00192 " transform="matrix(-1, 0, 0, -1, 33.0921, 65.22067)"/>
<path fill="none" stroke-width="0.41998" stroke-linecap="round" stroke-linejoin="round" stroke="rgb(0%, 0%, 0%)" stroke-opacity="1" stroke-miterlimit="10" d="M -2.18464 2.521451 C -1.786202 1.009733 -0.895577 0.294889 -0.00104625 0.00192 C -0.895577 -0.294955 -1.786202 -1.009799 -2.18464 -2.521517 " transform="matrix(1, 0, 0, -1, 81.37214, 65.22067)"/>
<g fill="rgb(0%, 0%, 0%)" fill-opacity="1">
<use xlink:href="#glyph-2-1" x="54.379" y="62.748"/>
</g>
<path fill="none" stroke-width="0.41998" stroke-linecap="butt" stroke-linejoin="miter" stroke="rgb(0%, 0%, 0%)" stroke-opacity="1" stroke-miterlimit="10" d="M -73.183781 0.06025 L 14.964656 0.06025 " transform="matrix(1, 0, 0, -1, 172.133, 65.279)"/>
<path fill="none" stroke-width="0.41998" stroke-linecap="round" stroke-linejoin="round" stroke="rgb(0%, 0%, 0%)" stroke-opacity="1" stroke-miterlimit="10" d="M -2.18287 2.521451 C -1.784432 1.009733 -0.897714 0.294889 0.00072375 0.00192 C -0.897714 -0.294955 -1.784432 -1.009799 -2.18287 -2.521517 " transform="matrix(1, 0, 0, -1, 187.30787, 65.22067)"/>
<g fill="rgb(0%, 0%, 0%)" fill-opacity="1">
<use xlink:href="#glyph-2-2" x="140.902" y="62.748"/>
</g>
<path fill="none" stroke-width="0.41998" stroke-linecap="butt" stroke-linejoin="miter" stroke="rgb(0%, 0%, 0%)" stroke-opacity="1" stroke-miterlimit="10" d="M -76.090031 -6.611625 L -42.179875 -45.740531 " transform="matrix(1, 0, 0, -1, 172.133, 65.279)"/>
<path fill="none" stroke-width="0.41998" stroke-linecap="round" stroke-linejoin="round" stroke="rgb(0%, 0%, 0%)" stroke-opacity="1" stroke-miterlimit="10" d="M -2.182771 2.519947 C -1.786771 1.008529 -0.896624 0.293967 -0.000387128 -0.0019985 C -0.896019 -0.295844 -1.786721 -1.007497 -2.182647 -2.520116 " transform="matrix(0.65489, 0.75568, 0.75568, -0.65489, 129.09942, 110.03414)"/>
<path fill="none" stroke-width="0.41998" stroke-linecap="round" stroke-linejoin="round" stroke="rgb(0%, 0%, 0%)" stroke-opacity="1" stroke-miterlimit="10" d="M -2.185415 2.519805 C -1.783905 1.00878 -0.893758 0.294219 -0.000472719 0.000811626 C -0.896105 -0.293034 -1.783855 -1.007245 -2.185291 -2.520258 " transform="matrix(0.65489, 0.75568, 0.75568, -0.65489, 130.08954, 111.17667)"/>
<path fill="none" stroke-width="0.41998" stroke-linecap="butt" stroke-linejoin="miter" stroke="rgb(0%, 0%, 0%)" stroke-opacity="1" stroke-miterlimit="10" d="M -73.183781 -2.779594 L 68.593563 -49.181937 " transform="matrix(1, 0, 0, -1, 172.133, 65.279)"/>
<path fill="none" stroke-width="0.41998" stroke-linecap="round" stroke-linejoin="round" stroke="rgb(0%, 0%, 0%)" stroke-opacity="1" stroke-miterlimit="10" d="M -2.185877 2.520294 C -1.785232 1.007305 -0.894735 0.295844 -0.000732812 0.000667711 C -0.89547 -0.292168 -1.783857 -1.006284 -2.184936 -2.518608 " transform="matrix(0.95036, 0.31104, 0.31104, -0.95036, 240.92627, 114.5243)"/>
<path fill="none" stroke-width="0.41998" stroke-linecap="butt" stroke-linejoin="miter" stroke="rgb(0%, 0%, 0%)" stroke-opacity="1" stroke-miterlimit="10" d="M 24.324031 8.654 L 24.324031 47.564156 " transform="matrix(1, 0, 0, -1, 172.133, 65.279)"/>
<path fill="none" stroke-width="0.41998" stroke-linecap="round" stroke-linejoin="round" stroke="rgb(0%, 0%, 0%)" stroke-opacity="1" stroke-miterlimit="10" d="M -2.184765 2.5198 C -1.786327 1.008081 -0.895702 0.293237 -0.00117125 0.00026875 C -0.895702 -0.2927 -1.786327 -1.007544 -2.184765 -2.519263 " transform="matrix(0, -1, -1, 0, 196.4573, 19.01836)"/>
<path fill="none" stroke-width="0.41998" stroke-linecap="round" stroke-linejoin="round" stroke="rgb(0%, 0%, 0%)" stroke-opacity="1" stroke-miterlimit="10" d="M -2.184956 2.5198 C -1.786519 1.008081 -0.895894 0.293237 -0.0013625 0.00026875 C -0.895894 -0.2927 -1.786519 -1.007544 -2.184956 -2.519263 " transform="matrix(0, -1, -1, 0, 196.4573, 17.50645)"/>
<path fill="none" stroke-width="0.41998" stroke-linecap="butt" stroke-linejoin="miter" stroke="rgb(0%, 0%, 0%)" stroke-opacity="1" stroke-miterlimit="10" d="M 34.777156 0.06025 L 139.870906 0.06025 " transform="matrix(1, 0, 0, -1, 172.133, 65.279)"/>
<path fill="none" stroke-width="0.41998" stroke-linecap="round" stroke-linejoin="miter" stroke="rgb(0%, 0%, 0%)" stroke-opacity="1" stroke-miterlimit="10" d="M -0.00145625 2.056608 C 0.717294 2.056608 1.303231 1.59567 1.303231 1.029264 C 1.303231 0.458951 0.717294 0.00192 -0.00145625 0.00192 " transform="matrix(-1, 0, 0, -1, 206.9087, 65.22067)"/>
<path fill="none" stroke-width="0.41998" stroke-linecap="round" stroke-linejoin="round" stroke="rgb(0%, 0%, 0%)" stroke-opacity="1" stroke-miterlimit="10" d="M -2.184666 2.521451 C -1.786229 1.009733 -0.895604 0.294889 -0.0010725 0.00192 C -0.895604 -0.294955 -1.786229 -1.009799 -2.184666 -2.521517 " transform="matrix(1, 0, 0, -1, 312.21201, 65.22067)"/>
<g fill="rgb(0%, 0%, 0%)" fill-opacity="1">
<use xlink:href="#glyph-2-3" x="256.841" y="61.392"/>
</g>
<path fill="none" stroke-width="0.41998" stroke-linecap="butt" stroke-linejoin="miter" stroke="rgb(0%, 0%, 0%)" stroke-opacity="1" stroke-miterlimit="10" d="M 149.777156 8.654 L 149.777156 45.634469 " transform="matrix(1, 0, 0, -1, 172.133, 65.279)"/>
<path fill="none" stroke-width="0.41998" stroke-linecap="round" stroke-linejoin="round" stroke="rgb(0%, 0%, 0%)" stroke-opacity="1" stroke-miterlimit="10" d="M -2.184346 2.521591 C -1.785909 1.009872 -0.895284 0.295029 -0.0007525 -0.00184625 C -0.895284 -0.294815 -1.785909 -1.009659 -2.184346 -2.521378 " transform="matrix(0, -1, -1, 0, 321.90831, 20.94456)"/>
<path fill="none" stroke-width="0.41998" stroke-linecap="round" stroke-linejoin="round" stroke="rgb(0%, 0%, 0%)" stroke-opacity="1" stroke-miterlimit="10" d="M -2.184557 2.521591 C -1.78612 1.009872 -0.895495 0.295029 -0.00096375 -0.00184625 C -0.895495 -0.294815 -1.78612 -1.009659 -2.184557 -2.521378 " transform="matrix(0, -1, -1, 0, 321.90831, 19.43263)"/>
<path fill="none" stroke-width="0.41998" stroke-linecap="butt" stroke-linejoin="miter" stroke="rgb(0%, 0%, 0%)" stroke-opacity="1" stroke-miterlimit="10" d="M -25.043156 -46.056937 L 16.882625 -6.900687 " transform="matrix(1, 0, 0, -1, 172.133, 65.279)"/>
<path fill="none" stroke-width="0.41998" stroke-linecap="round" stroke-linejoin="round" stroke="rgb(0%, 0%, 0%)" stroke-opacity="1" stroke-miterlimit="10" d="M -2.184193 2.52093 C -1.784369 1.008951 -0.894968 0.295832 -0.000465673 0.000221136 C -0.894231 -0.292833 -1.784723 -1.005874 -2.183558 -2.520227 " transform="matrix(0.73079, -0.68257, -0.68257, -0.73079, 189.16846, 72.035)"/>
<path fill="none" stroke-width="0.41998" stroke-linecap="butt" stroke-linejoin="miter" stroke="rgb(0%, 0%, 0%)" stroke-opacity="1" stroke-miterlimit="10" d="M -18.832219 -54.767875 L 68.574031 -54.767875 " transform="matrix(1, 0, 0, -1, 172.133, 65.279)"/>
<path fill="none" stroke-width="0.41998" stroke-linecap="round" stroke-linejoin="miter" stroke="rgb(0%, 0%, 0%)" stroke-opacity="1" stroke-miterlimit="10" d="M -0.00006125 2.059789 C 0.718689 2.059789 1.30072 1.598851 1.30072 1.028539 C 1.30072 0.462133 0.718689 0.001195 -0.00006125 0.001195 " transform="matrix(-1, 0, 0, -1, 153.30072, 120.04807)"/>
<path fill="none" stroke-width="0.41998" stroke-linecap="round" stroke-linejoin="round" stroke="rgb(0%, 0%, 0%)" stroke-opacity="1" stroke-miterlimit="10" d="M -2.18517 2.520726 C -1.786732 1.009008 -0.896107 0.294164 -0.00157625 0.001195 C -0.896107 -0.29568 -1.786732 -1.006617 -2.18517 -2.518336 " transform="matrix(1, 0, 0, -1, 239.40392, 120.04807)"/>
<path fill="none" stroke-width="0.41998" stroke-linecap="round" stroke-linejoin="round" stroke="rgb(0%, 0%, 0%)" stroke-opacity="1" stroke-miterlimit="10" d="M -2.185381 2.520726 C -1.783037 1.009008 -0.896319 0.294164 -0.0017875 0.001195 C -0.896319 -0.29568 -1.783037 -1.006617 -2.185381 -2.518336 " transform="matrix(1, 0, 0, -1, 240.91585, 120.04807)"/>
<g fill="rgb(0%, 0%, 0%)" fill-opacity="1">
<use xlink:href="#glyph-2-0" x="194.677" y="125.523"/>
</g>
<path fill="none" stroke-width="0.41998" stroke-linecap="butt" stroke-linejoin="miter" stroke="rgb(0%, 0%, 0%)" stroke-opacity="1" stroke-miterlimit="10" d="M 95.878719 -46.056937 L 141.667781 -6.885062 " transform="matrix(1, 0, 0, -1, 172.133, 65.279)"/>
<path fill="none" stroke-width="0.41998" stroke-linecap="round" stroke-linejoin="round" stroke="rgb(0%, 0%, 0%)" stroke-opacity="1" stroke-miterlimit="10" d="M -2.183502 2.522003 C -1.785902 1.009716 -0.896273 0.294901 -0.000686452 0.00168784 C -0.894871 -0.292367 -1.783998 -1.007166 -2.184252 -2.52063 " transform="matrix(0.75983, -0.65004, -0.65004, -0.75983, 313.95865, 72.02818)"/>
</svg>
