<?xml version="1.0" encoding="UTF-8"?>
<svg xmlns="http://www.w3.org/2000/svg" xmlns:xlink="http://www.w3.org/1999/xlink" width="291.61pt" height="68.05pt" viewBox="0 0 291.61 68.05">
<defs>
<g>
<g id="glyph-0-0">
<path d="M 4.828125 -3.359375 C 4.828125 -4.203125 4.78125 -5.046875 4.40625 -5.8125 C 3.921875 -6.828125 3.0625 -7 2.625 -7 C 2 -7 1.234375 -6.71875 0.796875 -5.75 C 0.46875 -5.015625 0.40625 -4.203125 0.40625 -3.359375 C 0.40625 -2.578125 0.453125 -1.625 0.875 -0.828125 C 1.328125 0.015625 2.09375 0.234375 2.609375 0.234375 C 3.1875 0.234375 3.984375 0.015625 4.4375 -0.984375 C 4.78125 -1.71875 4.828125 -2.53125 4.828125 -3.359375 Z M 2.609375 0 C 2.203125 0 1.578125 -0.265625 1.390625 -1.265625 C 1.28125 -1.90625 1.28125 -2.859375 1.28125 -3.484375 C 1.28125 -4.15625 1.28125 -4.84375 1.359375 -5.421875 C 1.5625 -6.671875 2.359375 -6.765625 2.609375 -6.765625 C 2.96875 -6.765625 3.65625 -6.578125 3.859375 -5.53125 C 3.953125 -4.953125 3.953125 -4.140625 3.953125 -3.484375 C 3.953125 -2.703125 3.953125 -1.984375 3.84375 -1.3125 C 3.6875 -0.3125 3.09375 0 2.609375 0 Z M 2.609375 0 "/>
</g>
<g id="glyph-1-0">
<path d="M 5.09375 -4.3125 L 4.203125 -6.40625 C 4.171875 -6.484375 4.15625 -6.53125 4.15625 -6.546875 C 4.15625 -6.609375 4.34375 -6.796875 4.78125 -6.84375 C 4.875 -6.859375 4.984375 -6.859375 4.984375 -7.046875 C 4.984375 -7.171875 4.859375 -7.171875 4.828125 -7.171875 C 4.40625 -7.171875 3.953125 -7.140625 3.5 -7.140625 C 3.25 -7.140625 2.59375 -7.171875 2.328125 -7.171875 C 2.265625 -7.171875 2.140625 -7.171875 2.140625 -6.96875 C 2.140625 -6.84375 2.25 -6.84375 2.390625 -6.84375 C 3.015625 -6.84375 3.078125 -6.734375 3.171875 -6.515625 L 4.40625 -3.578125 L 2.1875 -1.203125 L 2.0625 -1.078125 C 1.546875 -0.53125 1.046875 -0.359375 0.515625 -0.328125 C 0.375 -0.3125 0.28125 -0.3125 0.28125 -0.109375 C 0.28125 -0.109375 0.28125 0 0.421875 0 C 0.734375 0 1.078125 -0.03125 1.40625 -0.03125 C 1.796875 -0.03125 2.203125 0 2.578125 0 C 2.640625 0 2.765625 0 2.765625 -0.203125 C 2.765625 -0.3125 2.671875 -0.328125 2.640625 -0.328125 C 2.546875 -0.34375 2.21875 -0.359375 2.21875 -0.65625 C 2.21875 -0.8125 2.390625 -0.984375 2.515625 -1.125 L 3.578125 -2.25 L 4.53125 -3.28125 L 5.59375 -0.78125 C 5.625 -0.65625 5.640625 -0.65625 5.640625 -0.625 C 5.640625 -0.546875 5.4375 -0.375 5.03125 -0.328125 C 4.90625 -0.3125 4.8125 -0.296875 4.8125 -0.125 C 4.8125 0 4.9375 0 4.984375 0 C 5.265625 0 6 -0.03125 6.296875 -0.03125 C 6.5625 -0.03125 7.203125 0 7.46875 0 C 7.53125 0 7.671875 0 7.671875 -0.203125 C 7.671875 -0.328125 7.5625 -0.328125 7.46875 -0.328125 C 6.765625 -0.34375 6.75 -0.375 6.578125 -0.78125 C 6.15625 -1.765625 5.453125 -3.40625 5.21875 -4.03125 C 5.9375 -4.765625 7.03125 -6.015625 7.375 -6.3125 C 7.671875 -6.5625 8.078125 -6.8125 8.703125 -6.84375 C 8.84375 -6.859375 8.9375 -6.859375 8.9375 -7.0625 C 8.9375 -7.0625 8.9375 -7.171875 8.796875 -7.171875 C 8.484375 -7.171875 8.140625 -7.140625 7.8125 -7.140625 C 7.421875 -7.140625 7.03125 -7.171875 6.640625 -7.171875 C 6.578125 -7.171875 6.453125 -7.171875 6.453125 -6.96875 C 6.453125 -6.890625 6.5 -6.859375 6.578125 -6.84375 C 6.671875 -6.828125 7 -6.8125 7 -6.515625 C 7 -6.375 6.875 -6.234375 6.796875 -6.140625 Z M 5.09375 -4.3125 "/>
</g>
<g id="glyph-1-1">
<path d="M 6.265625 -5.96875 L 6.421875 -6.125 C 6.734375 -6.4375 7.078125 -6.796875 7.796875 -6.84375 C 7.90625 -6.859375 8 -6.859375 8 -7.046875 C 8 -7.125 7.953125 -7.171875 7.859375 -7.171875 C 7.59375 -7.171875 7.28125 -7.140625 7 -7.140625 C 6.65625 -7.140625 6.296875 -7.171875 5.953125 -7.171875 C 5.890625 -7.171875 5.75 -7.171875 5.75 -6.96875 C 5.75 -6.859375 5.859375 -6.84375 5.90625 -6.84375 C 5.984375 -6.84375 6.296875 -6.828125 6.296875 -6.609375 C 6.296875 -6.421875 6.046875 -6.15625 6 -6.09375 L 3.5625 -3.296875 L 2.421875 -6.421875 C 2.359375 -6.5625 2.359375 -6.578125 2.359375 -6.59375 C 2.359375 -6.84375 2.859375 -6.84375 2.96875 -6.84375 C 3.125 -6.84375 3.21875 -6.84375 3.21875 -7.0625 C 3.21875 -7.171875 3.09375 -7.171875 3.0625 -7.171875 C 2.765625 -7.171875 2.03125 -7.140625 1.75 -7.140625 C 1.484375 -7.140625 0.828125 -7.171875 0.5625 -7.171875 C 0.5 -7.171875 0.375 -7.171875 0.375 -6.96875 C 0.375 -6.84375 0.46875 -6.84375 0.609375 -6.84375 C 1.234375 -6.84375 1.28125 -6.75 1.375 -6.484375 L 2.671875 -3.03125 C 2.671875 -3 2.703125 -2.890625 2.703125 -2.859375 C 2.703125 -2.828125 2.28125 -1.140625 2.234375 -0.9375 C 2.09375 -0.375 2.09375 -0.34375 1.25 -0.328125 C 1.046875 -0.328125 0.96875 -0.328125 0.96875 -0.109375 C 0.96875 0 1.09375 0 1.109375 0 C 1.40625 0 2.140625 -0.03125 2.4375 -0.03125 C 2.734375 -0.03125 3.484375 0 3.78125 0 C 3.859375 0 3.984375 0 3.984375 -0.203125 C 3.984375 -0.328125 3.890625 -0.328125 3.6875 -0.328125 C 3.671875 -0.328125 3.46875 -0.328125 3.28125 -0.34375 C 3.0625 -0.375 3 -0.390625 3 -0.515625 C 3 -0.59375 3.09375 -0.953125 3.15625 -1.171875 L 3.515625 -2.65625 C 3.5625 -2.859375 3.578125 -2.890625 3.671875 -2.984375 Z M 6.265625 -5.96875 "/>
</g>
<g id="glyph-1-2">
<path d="M 7.5625 -6.921875 C 7.578125 -6.96875 7.59375 -7.015625 7.59375 -7.078125 C 7.59375 -7.171875 7.53125 -7.171875 7.328125 -7.171875 L 2.890625 -7.171875 C 2.640625 -7.171875 2.640625 -7.15625 2.578125 -6.96875 L 2 -5.078125 C 1.96875 -5.015625 1.96875 -4.953125 1.96875 -4.921875 C 1.96875 -4.90625 1.96875 -4.8125 2.09375 -4.8125 C 2.1875 -4.8125 2.203125 -4.875 2.21875 -4.90625 C 2.625 -6.15625 3.171875 -6.84375 4.8125 -6.84375 L 6.515625 -6.84375 L 0.65625 -0.28125 C 0.65625 -0.265625 0.609375 -0.125 0.609375 -0.09375 C 0.609375 0 0.6875 0 0.875 0 L 5.4375 0 C 5.6875 0 5.703125 -0.015625 5.765625 -0.203125 L 6.515625 -2.53125 C 6.515625 -2.578125 6.546875 -2.640625 6.546875 -2.6875 C 6.546875 -2.734375 6.515625 -2.796875 6.421875 -2.796875 C 6.328125 -2.796875 6.3125 -2.765625 6.234375 -2.546875 C 5.78125 -1.109375 5.265625 -0.359375 3.484375 -0.359375 L 1.6875 -0.359375 Z M 7.5625 -6.921875 "/>
</g>
<g id="glyph-2-0">
<path d="M 2.015625 -3.296875 C 2.078125 -3.40625 2.078125 -3.46875 2.078125 -3.515625 C 2.078125 -3.734375 1.890625 -3.890625 1.671875 -3.890625 C 1.40625 -3.890625 1.328125 -3.671875 1.296875 -3.5625 L 0.375 -0.546875 C 0.359375 -0.53125 0.328125 -0.453125 0.328125 -0.4375 C 0.328125 -0.359375 0.546875 -0.28125 0.609375 -0.28125 C 0.65625 -0.28125 0.65625 -0.296875 0.703125 -0.40625 Z M 2.015625 -3.296875 "/>
</g>
</g>
</defs>
<g fill="rgb(0%, 0%, 0%)" fill-opacity="1">
<use xlink:href="#glyph-0-0" x="4.524" y="11.026"/>
</g>
<g fill="rgb(0%, 0%, 0%)" fill-opacity="1">
<use xlink:href="#glyph-1-0" x="70.622" y="11.026"/>
</g>
<g fill="rgb(0%, 0%, 0%)" fill-opacity="1">
<use xlink:href="#glyph-1-1" x="142.39" y="11.026"/>
</g>
<g fill="rgb(0%, 0%, 0%)" fill-opacity="1">
<use xlink:href="#glyph-1-2" x="213.066" y="11.026"/>
</g>
<g fill="rgb(0%, 0%, 0%)" fill-opacity="1">
<use xlink:href="#glyph-0-0" x="281.833" y="11.026"/>
</g>
<g fill="rgb(0%, 0%, 0%)" fill-opacity="1">
<use xlink:href="#glyph-0-0" x="4.524" y="64.204"/>
</g>
<g fill="rgb(0%, 0%, 0%)" fill-opacity="1">
<use xlink:href="#glyph-1-0" x="69.224" y="64.204"/>
</g>
<g fill="rgb(0%, 0%, 0%)" fill-opacity="1">
<use xlink:href="#glyph-2-0" x="78.747" y="60.394"/>
</g>
<g fill="rgb(0%, 0%, 0%)" fill-opacity="1">
<use xlink:href="#glyph-1-1" x="140.993" y="64.204"/>
</g>
<g fill="rgb(0%, 0%, 0%)" fill-opacity="1">
<use xlink:href="#glyph-2-0" x="149.422" y="60.394"/>
</g>
<g fill="rgb(0%, 0%, 0%)" fill-opacity="1">
<use xlink:href="#glyph-1-2" x="211.668" y="64.204"/>
</g>
<g fill="rgb(0%, 0%, 0%)" fill-opacity="1">
<use xlink:href="#glyph-2-0" x="219.587" y="60.394"/>
</g>
<g fill="rgb(0%, 0%, 0%)" fill-opacity="1">
<use xlink:href="#glyph-0-0" x="281.833" y="64.204"/>
</g>
<path fill="none" stroke-width="0.41998" stroke-linecap="butt" stroke-linejoin="miter" stroke="rgb(0%, 0%, 0%)" stroke-opacity="1" stroke-miterlimit="10" d="M -131.305 25.628562 L -80.328438 25.628562 " transform="matrix(1, 0, 0, -1, 145.805, 34.027)"/>
<path fill="none" stroke-width="0.41998" stroke-linecap="round" stroke-linejoin="round" stroke="rgb(0%, 0%, 0%)" stroke-opacity="1" stroke-miterlimit="10" d="M -2.184094 2.521204 C -1.785656 1.009485 -0.895031 0.294641 -0.0005 0.0016725 C -0.895031 -0.295203 -1.785656 -1.00614 -2.184094 -2.521765 " transform="matrix(1, 0, 0, -1, 65.688, 8.40011)"/>
<path fill="none" stroke-width="0.41998" stroke-linecap="butt" stroke-linejoin="miter" stroke="rgb(0%, 0%, 0%)" stroke-opacity="1" stroke-miterlimit="10" d="M -60.933906 25.628562 L -8.558906 25.628562 " transform="matrix(1, 0, 0, -1, 145.805, 34.027)"/>
<path fill="none" stroke-width="0.41998" stroke-linecap="round" stroke-linejoin="round" stroke="rgb(0%, 0%, 0%)" stroke-opacity="1" stroke-miterlimit="10" d="M -2.184243 2.521204 C -1.785805 1.009485 -0.89518 0.294641 -0.00064875 0.0016725 C -0.89518 -0.295203 -1.785805 -1.00614 -2.184243 -2.521765 " transform="matrix(1, 0, 0, -1, 137.45768, 8.40011)"/>
<path fill="none" stroke-width="0.41998" stroke-linecap="butt" stroke-linejoin="miter" stroke="rgb(0%, 0%, 0%)" stroke-opacity="1" stroke-miterlimit="10" d="M -70.422188 18.956687 L -70.422188 -18.027688 " transform="matrix(1, 0, 0, -1, 145.805, 34.027)"/>
<path fill="none" stroke-width="0.41998" stroke-linecap="round" stroke-linejoin="round" stroke="rgb(0%, 0%, 0%)" stroke-opacity="1" stroke-miterlimit="10" d="M -2.185005 2.518064 C -1.786567 1.006345 -0.895942 0.295407 -0.00141125 -0.0014675 C -0.895942 -0.294436 -1.786567 -1.00928 -2.185005 -2.520999 " transform="matrix(0, 1, 1, 0, 75.38428, 52.26313)"/>
<path fill="none" stroke-width="0.41998" stroke-linecap="butt" stroke-linejoin="miter" stroke="rgb(0%, 0%, 0%)" stroke-opacity="1" stroke-miterlimit="10" d="M 9.741875 25.628562 L 62.116875 25.628562 " transform="matrix(1, 0, 0, -1, 145.805, 34.027)"/>
<path fill="none" stroke-width="0.41998" stroke-linecap="round" stroke-linejoin="round" stroke="rgb(0%, 0%, 0%)" stroke-opacity="1" stroke-miterlimit="10" d="M -2.184381 2.521204 C -1.785944 1.009485 -0.895319 0.294641 -0.0007875 0.0016725 C -0.895319 -0.295203 -1.785944 -1.00614 -2.184381 -2.521765 " transform="matrix(1, 0, 0, -1, 208.1336, 8.40011)"/>
<path fill="none" stroke-width="0.41998" stroke-linecap="butt" stroke-linejoin="miter" stroke="rgb(0%, 0%, 0%)" stroke-opacity="1" stroke-miterlimit="10" d="M 0.800469 18.956687 L 0.800469 -18.027688 " transform="matrix(1, 0, 0, -1, 145.805, 34.027)"/>
<path fill="none" stroke-width="0.41998" stroke-linecap="round" stroke-linejoin="round" stroke="rgb(0%, 0%, 0%)" stroke-opacity="1" stroke-miterlimit="10" d="M -2.185005 2.521806 C -1.786567 1.006181 -0.895942 0.295244 -0.00141125 -0.00163125 C -0.895942 -0.2946 -1.786567 -1.009444 -2.185005 -2.521163 " transform="matrix(0, 1, 1, 0, 146.6071, 52.26313)"/>
<path fill="none" stroke-width="0.41998" stroke-linecap="butt" stroke-linejoin="miter" stroke="rgb(0%, 0%, 0%)" stroke-opacity="1" stroke-miterlimit="10" d="M 79.905937 25.628562 L 130.886406 25.628562 " transform="matrix(1, 0, 0, -1, 145.805, 34.027)"/>
<path fill="none" stroke-width="0.41998" stroke-linecap="round" stroke-linejoin="round" stroke="rgb(0%, 0%, 0%)" stroke-opacity="1" stroke-miterlimit="10" d="M -2.18279 2.521204 C -1.784353 1.009485 -0.897634 0.294641 0.00080375 0.0016725 C -0.897634 -0.295203 -1.784353 -1.00614 -2.18279 -2.521765 " transform="matrix(1, 0, 0, -1, 276.90154, 8.40011)"/>
<path fill="none" stroke-width="0.41998" stroke-linecap="butt" stroke-linejoin="miter" stroke="rgb(0%, 0%, 0%)" stroke-opacity="1" stroke-miterlimit="10" d="M 71.222344 18.956687 L 71.222344 -18.027688 " transform="matrix(1, 0, 0, -1, 145.805, 34.027)"/>
<path fill="none" stroke-width="0.41998" stroke-linecap="round" stroke-linejoin="round" stroke="rgb(0%, 0%, 0%)" stroke-opacity="1" stroke-miterlimit="10" d="M -2.185005 2.519065 C -1.786567 1.007346 -0.895942 0.292503 -0.00141125 -0.00046625 C -0.895942 -0.293435 -1.786567 -1.008279 -2.185005 -2.519997 " transform="matrix(0, 1, 1, 0, 217.02781, 52.26313)"/>
<path fill="none" stroke-width="0.41998" stroke-linecap="butt" stroke-linejoin="miter" stroke="rgb(0%, 0%, 0%)" stroke-opacity="1" stroke-miterlimit="10" d="M -131.305 -27.551125 L -81.722969 -27.551125 " transform="matrix(1, 0, 0, -1, 145.805, 34.027)"/>
<path fill="none" stroke-width="0.41998" stroke-linecap="round" stroke-linejoin="round" stroke="rgb(0%, 0%, 0%)" stroke-opacity="1" stroke-miterlimit="10" d="M -2.184961 2.520306 C -1.786524 1.008587 -0.895899 0.293744 -0.0013675 0.000775 C -0.895899 -0.292194 -1.786524 -1.007038 -2.184961 -2.518756 " transform="matrix(1, 0, 0, -1, 64.29043, 61.5789)"/>
<path fill="none" stroke-width="0.41998" stroke-linecap="butt" stroke-linejoin="miter" stroke="rgb(0%, 0%, 0%)" stroke-opacity="1" stroke-miterlimit="10" d="M -59.535469 -27.551125 L -9.953438 -27.551125 " transform="matrix(1, 0, 0, -1, 145.805, 34.027)"/>
<path fill="none" stroke-width="0.41998" stroke-linecap="round" stroke-linejoin="round" stroke="rgb(0%, 0%, 0%)" stroke-opacity="1" stroke-miterlimit="10" d="M -2.18513 2.520306 C -1.786693 1.008587 -0.896068 0.293744 -0.00153625 0.000775 C -0.896068 -0.292194 -1.786693 -1.007038 -2.18513 -2.518756 " transform="matrix(1, 0, 0, -1, 136.06013, 61.5789)"/>
<path fill="none" stroke-width="0.41998" stroke-linecap="butt" stroke-linejoin="miter" stroke="rgb(0%, 0%, 0%)" stroke-opacity="1" stroke-miterlimit="10" d="M 11.140312 -27.551125 L 60.722344 -27.551125 " transform="matrix(1, 0, 0, -1, 145.805, 34.027)"/>
<path fill="none" stroke-width="0.41998" stroke-linecap="round" stroke-linejoin="round" stroke="rgb(0%, 0%, 0%)" stroke-opacity="1" stroke-miterlimit="10" d="M -2.185279 2.520306 C -1.786841 1.008587 -0.896216 0.293744 -0.001685 0.000775 C -0.896216 -0.292194 -1.786841 -1.007038 -2.185279 -2.518756 " transform="matrix(1, 0, 0, -1, 206.73606, 61.5789)"/>
<path fill="none" stroke-width="0.41998" stroke-linecap="butt" stroke-linejoin="miter" stroke="rgb(0%, 0%, 0%)" stroke-opacity="1" stroke-miterlimit="10" d="M 81.304375 -27.551125 L 130.886406 -27.551125 " transform="matrix(1, 0, 0, -1, 145.805, 34.027)"/>
<path fill="none" stroke-width="0.41998" stroke-linecap="round" stroke-linejoin="round" stroke="rgb(0%, 0%, 0%)" stroke-opacity="1" stroke-miterlimit="10" d="M -2.18279 2.520306 C -1.784353 1.008587 -0.897634 0.293744 0.00080375 0.000775 C -0.897634 -0.292194 -1.784353 -1.007038 -2.18279 -2.518756 " transform="matrix(1, 0, 0, -1, 276.90154, 61.5789)"/>
</svg>
