<?xml version="1.0" encoding="UTF-8"?>
<svg xmlns="http://www.w3.org/2000/svg" xmlns:xlink="http://www.w3.org/1999/xlink" width="329.24pt" height="70.67pt" viewBox="0 0 329.24 70.67">
<defs>
<g>
<g id="glyph-0-0">
<path d="M 4.828125 -3.359375 C 4.828125 -4.203125 4.78125 -5.046875 4.40625 -5.8125 C 3.921875 -6.828125 3.0625 -7 2.625 -7 C 2 -7 1.234375 -6.71875 0.796875 -5.75 C 0.46875 -5.015625 0.40625 -4.203125 0.40625 -3.359375 C 0.40625 -2.578125 0.453125 -1.625 0.875 -0.828125 C 1.328125 0.015625 2.09375 0.234375 2.609375 0.234375 C 3.1875 0.234375 3.984375 0.015625 4.4375 -0.984375 C 4.78125 -1.71875 4.828125 -2.53125 4.828125 -3.359375 Z M 2.609375 0 C 2.203125 0 1.578125 -0.265625 1.390625 -1.265625 C 1.28125 -1.90625 1.28125 -2.859375 1.28125 -3.484375 C 1.28125 -4.15625 1.28125 -4.84375 1.359375 -5.421875 C 1.5625 -6.671875 2.359375 -6.765625 2.609375 -6.765625 C 2.96875 -6.765625 3.65625 -6.578125 3.859375 -5.53125 C 3.953125 -4.953125 3.953125 -4.140625 3.953125 -3.484375 C 3.953125 -2.703125 3.953125 -1.984375 3.84375 -1.3125 C 3.6875 -0.3125 3.09375 0 2.609375 0 Z M 2.609375 0 "/>
</g>
<g id="glyph-1-0">
<path d="M 3.921875 -6.359375 C 4.015625 -6.734375 4.046875 -6.84375 4.875 -6.84375 C 5.140625 -6.84375 5.21875 -6.84375 5.21875 -7.046875 C 5.21875 -7.171875 5.109375 -7.171875 5.0625 -7.171875 C 4.75 -7.171875 3.984375 -7.140625 3.671875 -7.140625 C 3.359375 -7.140625 2.59375 -7.171875 2.28125 -7.171875 C 2.203125 -7.171875 2.0625 -7.171875 2.0625 -6.96875 C 2.0625 -6.84375 2.15625 -6.84375 2.359375 -6.84375 C 2.796875 -6.84375 3.09375 -6.84375 3.09375 -6.640625 C 3.09375 -6.59375 3.09375 -6.578125 3.0625 -6.484375 L 1.65625 -0.8125 C 1.546875 -0.4375 1.515625 -0.328125 0.6875 -0.328125 C 0.453125 -0.328125 0.359375 -0.328125 0.359375 -0.109375 C 0.359375 0 0.484375 0 0.515625 0 C 0.8125 0 1.578125 -0.03125 1.890625 -0.03125 C 2.203125 -0.03125 2.984375 0 3.296875 0 C 3.375 0 3.5 0 3.5 -0.203125 C 3.5 -0.328125 3.421875 -0.328125 3.1875 -0.328125 C 3 -0.328125 2.953125 -0.328125 2.734375 -0.34375 C 2.515625 -0.375 2.484375 -0.40625 2.484375 -0.53125 C 2.484375 -0.609375 2.5 -0.6875 2.515625 -0.765625 Z M 3.921875 -6.359375 "/>
</g>
<g id="glyph-1-1">
<path d="M 7.984375 -7.296875 C 7.984375 -7.328125 7.953125 -7.40625 7.859375 -7.40625 C 7.828125 -7.40625 7.828125 -7.390625 7.703125 -7.28125 L 6.96875 -6.46875 C 6.875 -6.609375 6.390625 -7.40625 5.234375 -7.40625 C 2.890625 -7.40625 0.53125 -5.078125 0.53125 -2.640625 C 0.53125 -0.90625 1.765625 0.234375 3.375 0.234375 C 4.28125 0.234375 5.078125 -0.1875 5.640625 -0.671875 C 6.609375 -1.53125 6.796875 -2.484375 6.796875 -2.515625 C 6.796875 -2.625 6.6875 -2.625 6.671875 -2.625 C 6.609375 -2.625 6.546875 -2.609375 6.53125 -2.515625 C 6.4375 -2.21875 6.1875 -1.46875 5.46875 -0.859375 C 4.75 -0.265625 4.078125 -0.09375 3.53125 -0.09375 C 2.59375 -0.09375 1.484375 -0.640625 1.484375 -2.28125 C 1.484375 -2.875 1.703125 -4.578125 2.75 -5.8125 C 3.390625 -6.546875 4.375 -7.078125 5.3125 -7.078125 C 6.390625 -7.078125 7 -6.265625 7 -5.046875 C 7 -4.625 6.96875 -4.625 6.96875 -4.515625 C 6.96875 -4.40625 7.09375 -4.40625 7.125 -4.40625 C 7.265625 -4.40625 7.265625 -4.4375 7.3125 -4.625 Z M 7.984375 -7.296875 "/>
</g>
<g id="glyph-2-0">
<path d="M 2.015625 -3.296875 C 2.078125 -3.40625 2.078125 -3.46875 2.078125 -3.515625 C 2.078125 -3.734375 1.890625 -3.890625 1.671875 -3.890625 C 1.40625 -3.890625 1.328125 -3.671875 1.296875 -3.5625 L 0.375 -0.546875 C 0.359375 -0.53125 0.328125 -0.453125 0.328125 -0.4375 C 0.328125 -0.359375 0.546875 -0.28125 0.609375 -0.28125 C 0.65625 -0.28125 0.65625 -0.296875 0.703125 -0.40625 Z M 2.015625 -3.296875 "/>
</g>
<g id="glyph-3-0">
<path d="M 3.59375 -2.21875 C 3.59375 -2.984375 3.5 -3.546875 3.1875 -4.03125 C 2.96875 -4.34375 2.53125 -4.625 1.984375 -4.625 C 0.359375 -4.625 0.359375 -2.71875 0.359375 -2.21875 C 0.359375 -1.71875 0.359375 0.140625 1.984375 0.140625 C 3.59375 0.140625 3.59375 -1.71875 3.59375 -2.21875 Z M 1.984375 -0.0625 C 1.65625 -0.0625 1.234375 -0.25 1.09375 -0.8125 C 1 -1.21875 1 -1.796875 1 -2.3125 C 1 -2.828125 1 -3.359375 1.09375 -3.734375 C 1.25 -4.28125 1.6875 -4.4375 1.984375 -4.4375 C 2.359375 -4.4375 2.71875 -4.203125 2.84375 -3.796875 C 2.953125 -3.421875 2.96875 -2.921875 2.96875 -2.3125 C 2.96875 -1.796875 2.96875 -1.28125 2.875 -0.84375 C 2.734375 -0.203125 2.265625 -0.0625 1.984375 -0.0625 Z M 1.984375 -0.0625 "/>
</g>
<g id="glyph-3-1">
<path d="M 2.328125 -4.4375 C 2.328125 -4.625 2.328125 -4.625 2.125 -4.625 C 1.671875 -4.1875 1.046875 -4.1875 0.765625 -4.1875 L 0.765625 -3.9375 C 0.921875 -3.9375 1.390625 -3.9375 1.765625 -4.125 L 1.765625 -0.578125 C 1.765625 -0.34375 1.765625 -0.25 1.078125 -0.25 L 0.8125 -0.25 L 0.8125 0 C 0.9375 0 1.796875 -0.03125 2.046875 -0.03125 C 2.265625 -0.03125 3.140625 0 3.296875 0 L 3.296875 -0.25 L 3.03125 -0.25 C 2.328125 -0.25 2.328125 -0.34375 2.328125 -0.578125 Z M 2.328125 -4.4375 "/>
</g>
<g id="glyph-4-0">
<path d="M 7.578125 -2.625 C 7.578125 -4.5625 6 -6.125 4.078125 -6.125 C 2.125 -6.125 0.578125 -4.53125 0.578125 -2.625 C 0.578125 -0.6875 2.15625 0.875 4.078125 0.875 C 6.03125 0.875 7.578125 -0.71875 7.578125 -2.625 Z M 0.84375 -2.765625 C 0.9375 -4.53125 2.3125 -5.78125 3.953125 -5.859375 L 3.953125 -2.765625 Z M 4.203125 -5.859375 C 5.859375 -5.78125 7.21875 -4.515625 7.3125 -2.765625 L 4.203125 -2.765625 Z M 3.953125 0.609375 C 2.328125 0.53125 0.9375 -0.703125 0.84375 -2.5 L 3.953125 -2.5 Z M 7.3125 -2.5 C 7.21875 -0.703125 5.828125 0.53125 4.203125 0.609375 L 4.203125 -2.5 Z M 7.3125 -2.5 "/>
</g>
<g id="glyph-5-0">
<path d="M 3.21875 9.984375 C 3.234375 9.546875 3.28125 9.09375 3.328125 8.65625 C 3.5625 6.3125 4.078125 3.984375 5.203125 1.890625 C 5.75 0.84375 6.3125 0.15625 6.59375 -0.1875 C 6.609375 -0.203125 6.609375 -0.234375 6.609375 -0.25 C 6.609375 -0.328125 6.546875 -0.328125 6.421875 -0.328125 C 6.3125 -0.328125 6.296875 -0.328125 6.28125 -0.328125 C 6.203125 -0.28125 5.09375 0.90625 4.28125 2.515625 C 3.359375 4.375 2.78125 6.390625 2.515625 9.046875 C 2.4375 9.8125 2.359375 11 2.359375 11.9375 L 2.359375 12.21875 C 2.375 12.28125 2.4375 12.28125 2.5625 12.28125 L 2.96875 12.28125 C 3.15625 12.28125 3.15625 12.28125 3.15625 12.078125 L 3.15625 11.78125 C 3.15625 11.546875 3.171875 11.296875 3.171875 11.078125 Z M 3.21875 9.984375 "/>
</g>
<g id="glyph-5-1">
<path d="M 3.15625 0.125 C 3.15625 -0.078125 3.15625 -0.078125 2.96875 -0.078125 L 2.5625 -0.078125 C 2.375 -0.078125 2.359375 -0.078125 2.359375 0.125 L 2.359375 4.0625 C 2.359375 4.265625 2.375 4.265625 2.5625 4.265625 L 2.96875 4.265625 C 3.15625 4.265625 3.15625 4.265625 3.15625 4.0625 Z M 3.15625 0.125 "/>
</g>
<g id="glyph-5-2">
<path d="M 3.15625 -0.21875 C 3.15625 -0.421875 3.15625 -0.421875 2.96875 -0.421875 L 2.5625 -0.421875 C 2.421875 -0.421875 2.375 -0.421875 2.359375 -0.359375 L 2.359375 -0.078125 C 2.359375 0.984375 2.453125 2.578125 2.609375 3.65625 C 2.875 5.546875 3.328125 7.421875 4.1875 9.140625 C 5.09375 10.96875 6.0625 11.96875 6.1875 12.109375 C 6.28125 12.1875 6.28125 12.1875 6.421875 12.1875 C 6.546875 12.1875 6.609375 12.1875 6.609375 12.109375 C 6.609375 12.109375 6.609375 12.078125 6.59375 12.046875 C 4.96875 10.0625 4.015625 7.8125 3.515625 4.671875 C 3.390625 3.96875 3.3125 3.25 3.265625 2.515625 C 3.203125 1.703125 3.15625 0.890625 3.15625 0.078125 Z M 3.15625 -0.21875 "/>
</g>
<g id="glyph-5-3">
<path d="M 4.5625 10.28125 C 4.546875 10.109375 4.4375 7.046875 3.4375 4.296875 C 2.90625 2.765625 2.078125 1.171875 0.796875 -0.203125 C 0.6875 -0.328125 0.6875 -0.328125 0.546875 -0.328125 C 0.4375 -0.328125 0.359375 -0.328125 0.359375 -0.25 C 0.359375 -0.21875 0.375 -0.1875 0.390625 -0.171875 C 1.65625 1.390625 2.390625 3 2.828125 4.453125 C 3.03125 5.09375 3.484375 6.625 3.6875 9.109375 C 3.75 9.96875 3.8125 10.921875 3.8125 11.78125 L 3.8125 12.078125 C 3.8125 12.28125 3.8125 12.28125 4 12.28125 L 4.40625 12.28125 C 4.546875 12.28125 4.59375 12.28125 4.609375 12.21875 L 4.609375 11.9375 C 4.609375 11.6875 4.59375 11.421875 4.59375 11.171875 Z M 4.5625 10.28125 "/>
</g>
<g id="glyph-5-4">
<path d="M 4.609375 0.125 C 4.609375 -0.078125 4.59375 -0.078125 4.40625 -0.078125 L 4 -0.078125 C 3.8125 -0.078125 3.8125 -0.078125 3.8125 0.125 L 3.8125 4.0625 C 3.8125 4.265625 3.8125 4.265625 4 4.265625 L 4.40625 4.265625 C 4.59375 4.265625 4.609375 4.265625 4.609375 4.0625 Z M 4.609375 0.125 "/>
</g>
<g id="glyph-5-5">
<path d="M 4 -0.421875 C 3.8125 -0.421875 3.8125 -0.421875 3.8125 -0.21875 L 3.8125 0.078125 C 3.8125 1.21875 3.71875 2.5625 3.609375 3.546875 C 3.40625 5.4375 2.953125 7.5 2.078125 9.359375 C 1.625 10.3125 1.046875 11.21875 0.375 12.046875 C 0.359375 12.0625 0.359375 12.09375 0.359375 12.109375 C 0.359375 12.1875 0.4375 12.1875 0.546875 12.1875 C 0.65625 12.1875 0.671875 12.1875 0.6875 12.1875 C 0.765625 12.140625 1.875 10.96875 2.6875 9.34375 C 3.609375 7.484375 4.1875 5.484375 4.453125 2.8125 C 4.53125 2.046875 4.609375 0.859375 4.609375 -0.078125 L 4.609375 -0.359375 C 4.59375 -0.421875 4.53125 -0.421875 4.40625 -0.421875 Z M 4 -0.421875 "/>
</g>
<g id="glyph-5-6">
<path d="M 5.53125 16.296875 C 5.53125 16.25 5.515625 16.25 5.421875 16.171875 C 3.1875 14.171875 2.359375 11.09375 2.359375 8.015625 C 2.359375 4.671875 3.328125 1.734375 5.421875 -0.125 C 5.515625 -0.21875 5.53125 -0.21875 5.53125 -0.265625 C 5.53125 -0.34375 5.453125 -0.34375 5.359375 -0.34375 C 5.28125 -0.34375 5.265625 -0.34375 5.25 -0.328125 C 5.203125 -0.328125 4.640625 0.125 4.125 0.703125 C 2.484375 2.625 1.71875 5.25 1.71875 8.015625 C 1.71875 10.625 2.40625 13.6875 4.640625 15.84375 C 4.65625 15.875 4.953125 16.15625 5.203125 16.34375 C 5.21875 16.375 5.234375 16.375 5.359375 16.375 C 5.453125 16.375 5.53125 16.375 5.53125 16.296875 Z M 5.53125 16.296875 "/>
</g>
<g id="glyph-5-7">
<path d="M 4.171875 8.015625 C 4.171875 5.40625 3.484375 2.34375 1.265625 0.1875 C 1.234375 0.15625 0.9375 -0.125 0.703125 -0.3125 C 0.671875 -0.34375 0.65625 -0.34375 0.546875 -0.34375 C 0.453125 -0.34375 0.375 -0.34375 0.375 -0.265625 C 0.375 -0.21875 0.375 -0.21875 0.46875 -0.125 C 2.8125 1.96875 3.546875 5.15625 3.546875 8.015625 C 3.546875 11.359375 2.5625 14.296875 0.46875 16.15625 C 0.375 16.25 0.375 16.265625 0.375 16.296875 C 0.375 16.375 0.453125 16.375 0.546875 16.375 C 0.625 16.375 0.640625 16.375 0.640625 16.375 C 0.703125 16.359375 1.265625 15.90625 1.765625 15.328125 C 3.40625 13.421875 4.171875 10.78125 4.171875 8.015625 Z M 4.171875 8.015625 "/>
</g>
</g>
</defs>
<g fill="rgb(0%, 0%, 0%)" fill-opacity="1">
<use xlink:href="#glyph-0-0" x="4.523" y="12.151"/>
</g>
<g fill="rgb(0%, 0%, 0%)" fill-opacity="1">
<use xlink:href="#glyph-1-0" x="70.632" y="12.151"/>
</g>
<g fill="rgb(0%, 0%, 0%)" fill-opacity="1">
<use xlink:href="#glyph-2-0" x="76.071" y="8.34"/>
</g>
<g fill="rgb(0%, 0%, 0%)" fill-opacity="1">
<use xlink:href="#glyph-3-0" x="78.368" y="8.34"/>
</g>
<g fill="rgb(0%, 0%, 0%)" fill-opacity="1">
<use xlink:href="#glyph-1-0" x="143.696" y="12.151"/>
</g>
<g fill="rgb(0%, 0%, 0%)" fill-opacity="1">
<use xlink:href="#glyph-2-0" x="149.136" y="8.34"/>
</g>
<g fill="rgb(0%, 0%, 0%)" fill-opacity="1">
<use xlink:href="#glyph-3-0" x="151.433" y="8.34"/>
</g>
<g fill="rgb(0%, 0%, 0%)" fill-opacity="1">
<use xlink:href="#glyph-4-0" x="158.236" y="12.151"/>
</g>
<g fill="rgb(0%, 0%, 0%)" fill-opacity="1">
<use xlink:href="#glyph-1-0" x="168.736" y="12.151"/>
</g>
<g fill="rgb(0%, 0%, 0%)" fill-opacity="1">
<use xlink:href="#glyph-2-0" x="174.175" y="8.34"/>
<use xlink:href="#glyph-2-0" x="176.46938" y="8.34"/>
</g>
<g fill="rgb(0%, 0%, 0%)" fill-opacity="1">
<use xlink:href="#glyph-3-0" x="178.769" y="8.34"/>
</g>
<g fill="rgb(0%, 0%, 0%)" fill-opacity="1">
<use xlink:href="#glyph-1-0" x="244.097" y="12.151"/>
</g>
<g fill="rgb(0%, 0%, 0%)" fill-opacity="1">
<use xlink:href="#glyph-2-0" x="249.536" y="8.34"/>
<use xlink:href="#glyph-2-0" x="251.83038" y="8.34"/>
</g>
<g fill="rgb(0%, 0%, 0%)" fill-opacity="1">
<use xlink:href="#glyph-3-0" x="254.13" y="8.34"/>
</g>
<g fill="rgb(0%, 0%, 0%)" fill-opacity="1">
<use xlink:href="#glyph-0-0" x="319.459" y="12.151"/>
</g>
<g fill="rgb(0%, 0%, 0%)" fill-opacity="1">
<use xlink:href="#glyph-0-0" x="4.523" y="66.824"/>
</g>
<g fill="rgb(0%, 0%, 0%)" fill-opacity="1">
<use xlink:href="#glyph-1-1" x="69.224" y="66.824"/>
</g>
<g fill="rgb(0%, 0%, 0%)" fill-opacity="1">
<use xlink:href="#glyph-2-0" x="77.479" y="63.013"/>
</g>
<g fill="rgb(0%, 0%, 0%)" fill-opacity="1">
<use xlink:href="#glyph-3-0" x="79.776" y="63.013"/>
</g>
<g fill="rgb(0%, 0%, 0%)" fill-opacity="1">
<use xlink:href="#glyph-1-1" x="157.104" y="66.824"/>
</g>
<g fill="rgb(0%, 0%, 0%)" fill-opacity="1">
<use xlink:href="#glyph-3-0" x="165.36" y="63.013"/>
</g>
<g fill="rgb(0%, 0%, 0%)" fill-opacity="1">
<use xlink:href="#glyph-1-1" x="242.689" y="66.824"/>
</g>
<g fill="rgb(0%, 0%, 0%)" fill-opacity="1">
<use xlink:href="#glyph-2-0" x="250.944" y="63.013"/>
<use xlink:href="#glyph-2-0" x="253.23838" y="63.013"/>
</g>
<g fill="rgb(0%, 0%, 0%)" fill-opacity="1">
<use xlink:href="#glyph-3-0" x="255.538" y="63.013"/>
</g>
<g fill="rgb(0%, 0%, 0%)" fill-opacity="1">
<use xlink:href="#glyph-0-0" x="319.459" y="66.824"/>
</g>
<path fill="none" stroke-width="0.41998" stroke-linecap="butt" stroke-linejoin="miter" stroke="rgb(0%, 0%, 0%)" stroke-opacity="1" stroke-miterlimit="10" d="M -150.121906 25.807656 L -99.129719 25.807656 " transform="matrix(1, 0, 0, -1, 164.618, 35.335)"/>
<path fill="none" stroke-width="0.41998" stroke-linecap="round" stroke-linejoin="round" stroke="rgb(0%, 0%, 0%)" stroke-opacity="1" stroke-miterlimit="10" d="M -2.182235 2.521584 C -1.783797 1.009865 -0.897079 0.295021 0.00135875 -0.00185375 C -0.897079 -0.294823 -1.783797 -1.009666 -2.182235 -2.521385 " transform="matrix(1, 0, 0, -1, 65.69786, 9.52549)"/>
<path fill="none" stroke-width="0.41998" stroke-linecap="butt" stroke-linejoin="miter" stroke="rgb(0%, 0%, 0%)" stroke-opacity="1" stroke-miterlimit="10" d="M -75.543781 25.807656 L -26.063312 25.807656 " transform="matrix(1, 0, 0, -1, 164.618, 35.335)"/>
<path fill="none" stroke-width="0.41998" stroke-linecap="round" stroke-linejoin="miter" stroke="rgb(0%, 0%, 0%)" stroke-opacity="1" stroke-miterlimit="10" d="M 0.00122125 2.05674 C 0.719971 2.05674 1.302002 1.595802 1.302002 1.029396 C 1.302002 0.459084 0.719971 -0.00185375 0.00122125 -0.00185375 " transform="matrix(-1, 0, 0, -1, 89.07544, 9.52549)"/>
<path fill="none" stroke-width="0.41998" stroke-linecap="round" stroke-linejoin="round" stroke="rgb(0%, 0%, 0%)" stroke-opacity="1" stroke-miterlimit="10" d="M -2.185375 2.521584 C -1.783031 1.009865 -0.896312 0.295021 -0.00178125 -0.00185375 C -0.896312 -0.294823 -1.783031 -1.009666 -2.185375 -2.521385 " transform="matrix(1, 0, 0, -1, 138.7635, 9.52549)"/>
<g fill="rgb(0%, 0%, 0%)" fill-opacity="1">
<use xlink:href="#glyph-5-0" x="104.306" y="12.336"/>
</g>
<g fill="rgb(0%, 0%, 0%)" fill-opacity="1">
<use xlink:href="#glyph-5-1" x="104.306" y="24.551"/>
</g>
<g fill="rgb(0%, 0%, 0%)" fill-opacity="1">
<use xlink:href="#glyph-5-1" x="104.306" y="28.735"/>
</g>
<g fill="rgb(0%, 0%, 0%)" fill-opacity="1">
<use xlink:href="#glyph-5-2" x="104.306" y="33.258"/>
</g>
<g fill="rgb(0%, 0%, 0%)" fill-opacity="1">
<use xlink:href="#glyph-3-1" x="111.283" y="23.821"/>
</g>
<g fill="rgb(0%, 0%, 0%)" fill-opacity="1">
<use xlink:href="#glyph-3-0" x="111.283" y="40.201"/>
</g>
<g fill="rgb(0%, 0%, 0%)" fill-opacity="1">
<use xlink:href="#glyph-5-3" x="115.254" y="12.336"/>
</g>
<g fill="rgb(0%, 0%, 0%)" fill-opacity="1">
<use xlink:href="#glyph-5-4" x="115.254" y="24.551"/>
</g>
<g fill="rgb(0%, 0%, 0%)" fill-opacity="1">
<use xlink:href="#glyph-5-4" x="115.254" y="28.735"/>
</g>
<g fill="rgb(0%, 0%, 0%)" fill-opacity="1">
<use xlink:href="#glyph-5-5" x="115.254" y="33.258"/>
</g>
<path fill="none" stroke-width="0.41998" stroke-linecap="butt" stroke-linejoin="miter" stroke="rgb(0%, 0%, 0%)" stroke-opacity="1" stroke-miterlimit="10" d="M -87.883625 19.139687 L -87.883625 -18.719688 " transform="matrix(1, 0, 0, -1, 164.618, 35.335)"/>
<path fill="none" stroke-width="0.41998" stroke-linecap="round" stroke-linejoin="round" stroke="rgb(0%, 0%, 0%)" stroke-opacity="1" stroke-miterlimit="10" d="M -2.185174 2.518226 C -1.786736 1.006507 -0.896111 0.29557 -0.00158 -0.001305 C -0.896111 -0.294274 -1.786736 -1.009118 -2.185174 -2.520836 " transform="matrix(0, 1, 1, 0, 76.73568, 52.75158)"/>
<path fill="none" stroke-width="0.41998" stroke-linecap="round" stroke-linejoin="round" stroke="rgb(0%, 0%, 0%)" stroke-opacity="1" stroke-miterlimit="10" d="M -2.185385 2.518226 C -1.783041 1.006507 -0.896322 0.29557 -0.00179125 -0.001305 C -0.896322 -0.294274 -1.783041 -1.009118 -2.185385 -2.520836 " transform="matrix(0, 1, 1, 0, 76.73568, 54.26351)"/>
<path fill="none" stroke-width="0.41998" stroke-linecap="butt" stroke-linejoin="miter" stroke="rgb(0%, 0%, 0%)" stroke-opacity="1" stroke-miterlimit="10" d="M 23.346844 25.807656 L 74.339031 25.807656 " transform="matrix(1, 0, 0, -1, 164.618, 35.335)"/>
<path fill="none" stroke-width="0.41998" stroke-linecap="round" stroke-linejoin="round" stroke="rgb(0%, 0%, 0%)" stroke-opacity="1" stroke-miterlimit="10" d="M -2.18486 2.521584 C -1.786423 1.009865 -0.895798 0.295021 -0.00126625 -0.00185375 C -0.895798 -0.294823 -1.786423 -1.009666 -2.18486 -2.521385 " transform="matrix(1, 0, 0, -1, 237.65361, 9.52549)"/>
<path fill="none" stroke-width="0.41998" stroke-linecap="round" stroke-linejoin="round" stroke="rgb(0%, 0%, 0%)" stroke-opacity="1" stroke-miterlimit="10" d="M -2.185081 2.521584 C -1.786644 1.009865 -0.896019 0.295021 -0.0014875 -0.00185375 C -0.896019 -0.294823 -1.786644 -1.009666 -2.185081 -2.521385 " transform="matrix(1, 0, 0, -1, 239.16555, 9.52549)"/>
<g fill="rgb(0%, 0%, 0%)" fill-opacity="1">
<use xlink:href="#glyph-5-6" x="198.813" y="12.336"/>
</g>
<g fill="rgb(0%, 0%, 0%)" fill-opacity="1">
<use xlink:href="#glyph-3-0" x="204.718" y="23.642"/>
</g>
<g fill="rgb(0%, 0%, 0%)" fill-opacity="1">
<use xlink:href="#glyph-3-1" x="218.644679" y="23.642"/>
</g>
<g fill="rgb(0%, 0%, 0%)" fill-opacity="1">
<use xlink:href="#glyph-5-7" x="222.624" y="12.336"/>
</g>
<path fill="none" stroke-width="0.41998" stroke-linecap="butt" stroke-linejoin="miter" stroke="rgb(0%, 0%, 0%)" stroke-opacity="1" stroke-miterlimit="10" d="M -1.14925 18.264687 L -1.14925 -18.719688 " transform="matrix(1, 0, 0, -1, 164.618, 35.335)"/>
<path fill="none" stroke-width="0.41998" stroke-linecap="round" stroke-linejoin="round" stroke="rgb(0%, 0%, 0%)" stroke-opacity="1" stroke-miterlimit="10" d="M -2.185174 2.518761 C -1.786736 1.007043 -0.896111 0.292199 -0.00158 -0.00077 C -0.896111 -0.293739 -1.786736 -1.008582 -2.185174 -2.520301 " transform="matrix(0, 1, 1, 0, 163.46952, 52.75158)"/>
<path fill="none" stroke-width="0.41998" stroke-linecap="round" stroke-linejoin="round" stroke="rgb(0%, 0%, 0%)" stroke-opacity="1" stroke-miterlimit="10" d="M -2.185385 2.518761 C -1.783041 1.007043 -0.896322 0.292199 -0.00179125 -0.00077 C -0.896322 -0.293739 -1.783041 -1.008582 -2.185385 -2.520301 " transform="matrix(0, 1, 1, 0, 163.46952, 54.26351)"/>
<path fill="none" stroke-width="0.41998" stroke-linecap="butt" stroke-linejoin="miter" stroke="rgb(0%, 0%, 0%)" stroke-opacity="1" stroke-miterlimit="10" d="M 98.710125 25.807656 L 149.698406 25.807656 " transform="matrix(1, 0, 0, -1, 164.618, 35.335)"/>
<path fill="none" stroke-width="0.41998" stroke-linecap="round" stroke-linejoin="round" stroke="rgb(0%, 0%, 0%)" stroke-opacity="1" stroke-miterlimit="10" d="M -2.18439 2.521584 C -1.785953 1.009865 -0.895328 0.295021 -0.00079625 -0.00185375 C -0.895328 -0.294823 -1.785953 -1.009666 -2.18439 -2.521385 " transform="matrix(1, 0, 0, -1, 314.52814, 9.52549)"/>
<path fill="none" stroke-width="0.41998" stroke-linecap="butt" stroke-linejoin="miter" stroke="rgb(0%, 0%, 0%)" stroke-opacity="1" stroke-miterlimit="10" d="M 86.733563 19.139687 L 86.733563 -18.719688 " transform="matrix(1, 0, 0, -1, 164.618, 35.335)"/>
<path fill="none" stroke-width="0.41998" stroke-linecap="round" stroke-linejoin="round" stroke="rgb(0%, 0%, 0%)" stroke-opacity="1" stroke-miterlimit="10" d="M -2.185174 2.519264 C -1.786736 1.007545 -0.896111 0.292701 -0.00158 -0.0002675 C -0.896111 -0.293236 -1.786736 -1.00808 -2.185174 -2.519799 " transform="matrix(0, 1, 1, 0, 251.35183, 52.75158)"/>
<path fill="none" stroke-width="0.41998" stroke-linecap="round" stroke-linejoin="round" stroke="rgb(0%, 0%, 0%)" stroke-opacity="1" stroke-miterlimit="10" d="M -2.185385 2.519264 C -1.783041 1.007545 -0.896322 0.292701 -0.00179125 -0.0002675 C -0.896322 -0.293236 -1.783041 -1.00808 -2.185385 -2.519799 " transform="matrix(0, 1, 1, 0, 251.35183, 54.26351)"/>
<path fill="none" stroke-width="0.41998" stroke-linecap="butt" stroke-linejoin="miter" stroke="rgb(0%, 0%, 0%)" stroke-opacity="1" stroke-miterlimit="10" d="M -150.121906 -28.864219 L -100.539875 -28.864219 " transform="matrix(1, 0, 0, -1, 164.618, 35.335)"/>
<path fill="none" stroke-width="0.41998" stroke-linecap="round" stroke-linejoin="round" stroke="rgb(0%, 0%, 0%)" stroke-opacity="1" stroke-miterlimit="10" d="M -2.184371 2.519482 C -1.785934 1.007764 -0.895309 0.29292 -0.0007775 -0.00004875 C -0.895309 -0.293018 -1.785934 -1.007861 -2.184371 -2.51958 " transform="matrix(1, 0, 0, -1, 64.28984, 64.19917)"/>
<path fill="none" stroke-width="0.41998" stroke-linecap="butt" stroke-linejoin="miter" stroke="rgb(0%, 0%, 0%)" stroke-opacity="1" stroke-miterlimit="10" d="M -75.645344 -28.864219 L -12.657062 -28.864219 " transform="matrix(1, 0, 0, -1, 164.618, 35.335)"/>
<path fill="none" stroke-width="0.41998" stroke-linecap="round" stroke-linejoin="round" stroke="rgb(0%, 0%, 0%)" stroke-opacity="1" stroke-miterlimit="10" d="M -2.183889 2.519482 C -1.785451 1.007764 -0.894826 0.29292 -0.000295 -0.00004875 C -0.894826 -0.293018 -1.785451 -1.007861 -2.183889 -2.51958 " transform="matrix(1, 0, 0, -1, 152.17217, 64.19917)"/>
<path fill="none" stroke-width="0.41998" stroke-linecap="butt" stroke-linejoin="miter" stroke="rgb(0%, 0%, 0%)" stroke-opacity="1" stroke-miterlimit="10" d="M 9.940594 -28.864219 L 72.928875 -28.864219 " transform="matrix(1, 0, 0, -1, 164.618, 35.335)"/>
<path fill="none" stroke-width="0.41998" stroke-linecap="round" stroke-linejoin="round" stroke="rgb(0%, 0%, 0%)" stroke-opacity="1" stroke-miterlimit="10" d="M -2.183291 2.519482 C -1.784854 1.007764 -0.894229 0.29292 0.0003025 -0.00004875 C -0.894229 -0.293018 -1.784854 -1.007861 -2.183291 -2.51958 " transform="matrix(1, 0, 0, -1, 237.75751, 64.19917)"/>
<path fill="none" stroke-width="0.41998" stroke-linecap="butt" stroke-linejoin="miter" stroke="rgb(0%, 0%, 0%)" stroke-opacity="1" stroke-miterlimit="10" d="M 100.116375 -28.864219 L 149.698406 -28.864219 " transform="matrix(1, 0, 0, -1, 164.618, 35.335)"/>
<path fill="none" stroke-width="0.41998" stroke-linecap="round" stroke-linejoin="round" stroke="rgb(0%, 0%, 0%)" stroke-opacity="1" stroke-miterlimit="10" d="M -2.18439 2.519482 C -1.785953 1.007764 -0.895328 0.29292 -0.00079625 -0.00004875 C -0.895328 -0.293018 -1.785953 -1.007861 -2.18439 -2.51958 " transform="matrix(1, 0, 0, -1, 314.52814, 64.19917)"/>
</svg>
