<?xml version="1.0" encoding="UTF-8"?>
<svg xmlns="http://www.w3.org/2000/svg" xmlns:xlink="http://www.w3.org/1999/xlink" width="168.69pt" height="74.87pt" viewBox="0 0 168.69 74.87">
<defs>
<g>
<g id="glyph-0-0">
<path d="M 3.453125 -0.953125 L 3.453125 -0.484375 L 3.921875 0.28125 L 5.21875 -0.875 L 5.140625 -1.015625 C 5 -0.90625 4.875 -0.84375 4.65625 -0.78125 L 4.28125 -1.25 C 4.28125 -1.734375 4.28125 -2.203125 4.28125 -2.6875 C 4.28125 -3.40625 4.328125 -4.109375 4.4375 -4.8125 L 4.34375 -4.875 L 3.640625 -4.53125 C 3.296875 -4.59375 2.96875 -4.75 2.671875 -4.953125 L 0.890625 -3.828125 C 0.734375 -3.125 0.6875 -2.375 0.6875 -1.640625 C 0.6875 -1.328125 0.6875 -1 0.703125 -0.6875 C 1 -0.3125 1.296875 0.046875 1.609375 0.375 Z M 3.453125 -1.25 C 2.828125 -0.8125 2.421875 -0.578125 2.25 -0.578125 C 2.09375 -0.578125 1.65625 -1.15625 1.546875 -1.265625 C 1.53125 -1.546875 1.515625 -1.828125 1.515625 -2.109375 C 1.515625 -2.75 1.515625 -3.671875 1.953125 -4.109375 C 2.4375 -3.96875 2.953125 -3.828125 3.4375 -3.828125 Z M 3.453125 -1.25 "/>
</g>
<g id="glyph-1-0">
<path d="M 5.359375 0 L 5.359375 -0.328125 C 4.984375 -0.328125 4.75 -0.328125 4.34375 -0.875 L 3.015625 -2.765625 C 3 -2.78125 2.953125 -2.84375 2.953125 -2.875 C 2.953125 -2.921875 3.703125 -3.546875 3.796875 -3.640625 C 4.46875 -4.171875 4.90625 -4.1875 5.125 -4.203125 L 5.125 -4.53125 C 4.8125 -4.5 4.6875 -4.5 4.390625 -4.5 C 4.015625 -4.5 3.359375 -4.515625 3.21875 -4.53125 L 3.21875 -4.203125 C 3.40625 -4.1875 3.515625 -4.078125 3.515625 -3.9375 C 3.515625 -3.734375 3.375 -3.59375 3.28125 -3.53125 L 1.8125 -2.25 L 1.8125 -7.28125 L 0.296875 -7.171875 L 0.296875 -6.84375 C 1.03125 -6.84375 1.109375 -6.765625 1.109375 -6.265625 L 1.109375 -0.796875 C 1.109375 -0.328125 1 -0.328125 0.296875 -0.328125 L 0.296875 0 L 1.4375 -0.03125 L 2.59375 0 L 2.59375 -0.328125 C 1.890625 -0.328125 1.78125 -0.328125 1.78125 -0.796875 L 1.78125 -1.875 L 2.453125 -2.453125 C 3.25 -1.34375 3.703125 -0.75 3.703125 -0.5625 C 3.703125 -0.375 3.515625 -0.328125 3.3125 -0.328125 L 3.3125 0 L 4.453125 -0.03125 C 4.75 -0.03125 5.0625 -0.015625 5.359375 0 Z M 5.359375 0 "/>
</g>
<g id="glyph-1-1">
<path d="M 4.359375 -1.25 C 4.359375 -1.359375 4.28125 -1.375 4.21875 -1.375 C 4.125 -1.375 4.109375 -1.3125 4.078125 -1.234375 C 3.71875 -0.140625 2.765625 -0.140625 2.671875 -0.140625 C 2.140625 -0.140625 1.71875 -0.46875 1.484375 -0.84375 C 1.171875 -1.359375 1.171875 -2.046875 1.171875 -2.421875 L 4.09375 -2.421875 C 4.328125 -2.421875 4.359375 -2.421875 4.359375 -2.640625 C 4.359375 -3.6875 3.796875 -4.703125 2.484375 -4.703125 C 1.265625 -4.703125 0.296875 -3.625 0.296875 -2.3125 C 0.296875 -0.90625 1.390625 0.109375 2.609375 0.109375 C 3.890625 0.109375 4.359375 -1.046875 4.359375 -1.25 Z M 3.671875 -2.640625 L 1.171875 -2.640625 C 1.234375 -4.203125 2.125 -4.46875 2.484375 -4.46875 C 3.5625 -4.46875 3.671875 -3.0625 3.671875 -2.640625 Z M 3.671875 -2.640625 "/>
</g>
<g id="glyph-1-2">
<path d="M 3.828125 -4 C 3.828125 -4.34375 3.5 -4.640625 3.046875 -4.640625 C 2.28125 -4.640625 1.90625 -3.9375 1.75 -3.484375 L 1.75 -4.640625 L 0.296875 -4.53125 L 0.296875 -4.203125 C 1.03125 -4.203125 1.109375 -4.125 1.109375 -3.609375 L 1.109375 -0.796875 C 1.109375 -0.328125 1 -0.328125 0.296875 -0.328125 L 0.296875 0 L 1.484375 -0.03125 C 1.90625 -0.03125 2.40625 -0.03125 2.828125 0 L 2.828125 -0.328125 L 2.609375 -0.328125 C 1.828125 -0.328125 1.8125 -0.4375 1.8125 -0.8125 L 1.8125 -2.4375 C 1.8125 -3.46875 2.25 -4.40625 3.046875 -4.40625 C 3.125 -4.40625 3.140625 -4.40625 3.15625 -4.40625 C 3.125 -4.390625 2.921875 -4.265625 2.921875 -3.984375 C 2.921875 -3.703125 3.140625 -3.53125 3.375 -3.53125 C 3.5625 -3.53125 3.828125 -3.671875 3.828125 -4 Z M 3.828125 -4 "/>
</g>
<g id="glyph-2-0">
<path d="M 0.46875 1.28125 C 0.390625 1.640625 0.375 1.71875 -0.09375 1.71875 C -0.21875 1.71875 -0.34375 1.71875 -0.34375 1.90625 C -0.34375 2 -0.28125 2.03125 -0.203125 2.03125 C 0.078125 2.03125 0.390625 2 0.6875 2 C 1.03125 2 1.390625 2.03125 1.71875 2.03125 C 1.78125 2.03125 1.90625 2.03125 1.90625 1.828125 C 1.90625 1.71875 1.8125 1.71875 1.65625 1.71875 C 1.140625 1.71875 1.140625 1.640625 1.140625 1.546875 C 1.140625 1.421875 1.578125 -0.296875 1.65625 -0.5625 C 1.78125 -0.25 2.078125 0.109375 2.609375 0.109375 C 3.828125 0.109375 5.140625 -1.421875 5.140625 -2.96875 C 5.140625 -3.953125 4.546875 -4.640625 3.75 -4.640625 C 3.21875 -4.640625 2.71875 -4.265625 2.375 -3.859375 C 2.265625 -4.421875 1.8125 -4.640625 1.421875 -4.640625 C 0.9375 -4.640625 0.75 -4.234375 0.65625 -4.046875 C 0.46875 -3.6875 0.328125 -3.0625 0.328125 -3.03125 C 0.328125 -2.921875 0.4375 -2.921875 0.453125 -2.921875 C 0.5625 -2.921875 0.5625 -2.921875 0.625 -3.15625 C 0.8125 -3.90625 1.015625 -4.40625 1.390625 -4.40625 C 1.578125 -4.40625 1.71875 -4.328125 1.71875 -3.921875 C 1.71875 -3.6875 1.6875 -3.5625 1.65625 -3.390625 Z M 2.328125 -3.28125 C 2.390625 -3.5625 2.671875 -3.859375 2.859375 -4.015625 C 3.234375 -4.34375 3.53125 -4.40625 3.71875 -4.40625 C 4.140625 -4.40625 4.390625 -4.046875 4.390625 -3.421875 C 4.390625 -2.796875 4.046875 -1.59375 3.859375 -1.203125 C 3.5 -0.46875 3 -0.109375 2.609375 -0.109375 C 1.90625 -0.109375 1.78125 -0.984375 1.78125 -1.046875 C 1.78125 -1.078125 1.78125 -1.09375 1.8125 -1.21875 Z M 2.328125 -3.28125 "/>
</g>
<g id="glyph-2-1">
<path d="M 9.71875 -6.359375 C 9.8125 -6.734375 9.84375 -6.84375 10.625 -6.84375 C 10.875 -6.84375 10.96875 -6.84375 10.96875 -7.0625 C 10.96875 -7.171875 10.859375 -7.171875 10.671875 -7.171875 L 9.296875 -7.171875 C 9.015625 -7.171875 9.015625 -7.171875 8.890625 -6.96875 L 5.046875 -0.984375 L 4.234375 -6.9375 C 4.203125 -7.171875 4.171875 -7.171875 3.90625 -7.171875 L 2.46875 -7.171875 C 2.265625 -7.171875 2.15625 -7.171875 2.15625 -6.96875 C 2.15625 -6.84375 2.25 -6.84375 2.453125 -6.84375 C 2.59375 -6.84375 2.78125 -6.828125 2.90625 -6.828125 C 3.078125 -6.796875 3.140625 -6.765625 3.140625 -6.65625 C 3.140625 -6.609375 3.125 -6.578125 3.09375 -6.453125 L 1.765625 -1.109375 C 1.65625 -0.6875 1.484375 -0.359375 0.625 -0.328125 C 0.578125 -0.328125 0.4375 -0.3125 0.4375 -0.125 C 0.4375 -0.03125 0.5 0 0.59375 0 C 0.921875 0 1.296875 -0.03125 1.640625 -0.03125 C 2 -0.03125 2.375 0 2.71875 0 C 2.765625 0 2.90625 0 2.90625 -0.203125 C 2.90625 -0.328125 2.796875 -0.328125 2.71875 -0.328125 C 2.125 -0.34375 2 -0.546875 2 -0.78125 C 2 -0.859375 2.015625 -0.90625 2.046875 -1.03125 L 3.46875 -6.75 L 3.484375 -6.75 L 4.390625 -0.234375 C 4.40625 -0.109375 4.421875 0 4.546875 0 C 4.65625 0 4.71875 -0.109375 4.78125 -0.1875 L 9.015625 -6.828125 L 9.03125 -6.828125 L 7.53125 -0.8125 C 7.421875 -0.40625 7.40625 -0.328125 6.578125 -0.328125 C 6.390625 -0.328125 6.28125 -0.328125 6.28125 -0.125 C 6.28125 0 6.40625 0 6.4375 0 C 6.734375 0 7.4375 -0.03125 7.734375 -0.03125 C 8.171875 -0.03125 8.625 0 9.046875 0 C 9.109375 0 9.25 0 9.25 -0.203125 C 9.25 -0.328125 9.15625 -0.328125 8.953125 -0.328125 C 8.5625 -0.328125 8.28125 -0.328125 8.28125 -0.515625 C 8.28125 -0.5625 8.28125 -0.578125 8.328125 -0.765625 Z M 9.71875 -6.359375 "/>
</g>
<g id="glyph-2-2">
<path d="M 3.9375 -6.453125 C 4 -6.703125 4.03125 -6.796875 4.234375 -6.828125 C 4.328125 -6.84375 4.65625 -6.84375 4.875 -6.84375 C 5.625 -6.84375 6.78125 -6.84375 6.78125 -5.8125 C 6.78125 -5.453125 6.609375 -4.71875 6.203125 -4.3125 C 5.9375 -4.046875 5.375 -3.703125 4.4375 -3.703125 L 3.25 -3.703125 Z M 5.453125 -3.5625 C 6.515625 -3.796875 7.765625 -4.53125 7.765625 -5.59375 C 7.765625 -6.5 6.8125 -7.171875 5.4375 -7.171875 L 2.453125 -7.171875 C 2.234375 -7.171875 2.140625 -7.171875 2.140625 -6.96875 C 2.140625 -6.84375 2.234375 -6.84375 2.4375 -6.84375 C 2.453125 -6.84375 2.65625 -6.84375 2.828125 -6.828125 C 3.03125 -6.796875 3.125 -6.796875 3.125 -6.65625 C 3.125 -6.609375 3.109375 -6.578125 3.078125 -6.453125 L 1.671875 -0.8125 C 1.5625 -0.40625 1.546875 -0.328125 0.71875 -0.328125 C 0.53125 -0.328125 0.4375 -0.328125 0.4375 -0.109375 C 0.4375 0 0.5625 0 0.578125 0 C 0.875 0 1.609375 -0.03125 1.90625 -0.03125 C 2.1875 -0.03125 2.9375 0 3.234375 0 C 3.3125 0 3.4375 0 3.4375 -0.203125 C 3.4375 -0.328125 3.34375 -0.328125 3.15625 -0.328125 C 2.765625 -0.328125 2.46875 -0.328125 2.46875 -0.515625 C 2.46875 -0.578125 2.484375 -0.625 2.5 -0.6875 L 3.1875 -3.46875 L 4.4375 -3.46875 C 5.390625 -3.46875 5.59375 -2.890625 5.59375 -2.515625 C 5.59375 -2.359375 5.5 -2.03125 5.4375 -1.796875 C 5.359375 -1.5 5.265625 -1.109375 5.265625 -0.90625 C 5.265625 0.234375 6.53125 0.234375 6.671875 0.234375 C 7.5625 0.234375 7.921875 -0.828125 7.921875 -0.96875 C 7.921875 -1.109375 7.8125 -1.109375 7.796875 -1.109375 C 7.703125 -1.109375 7.6875 -1.03125 7.671875 -0.953125 C 7.40625 -0.171875 6.953125 0 6.703125 0 C 6.359375 0 6.296875 -0.234375 6.296875 -0.640625 C 6.296875 -0.96875 6.359375 -1.5 6.390625 -1.84375 C 6.421875 -1.984375 6.4375 -2.1875 6.4375 -2.328125 C 6.4375 -3.140625 5.734375 -3.46875 5.453125 -3.5625 Z M 5.453125 -3.5625 "/>
</g>
<g id="glyph-2-3">
<path d="M 7.9375 -6.0625 C 8.046875 -6.484375 8.234375 -6.8125 9.078125 -6.84375 C 9.125 -6.84375 9.25 -6.859375 9.25 -7.0625 C 9.25 -7.0625 9.25 -7.171875 9.109375 -7.171875 C 8.765625 -7.171875 8.40625 -7.140625 8.046875 -7.140625 C 7.703125 -7.140625 7.328125 -7.171875 6.984375 -7.171875 C 6.921875 -7.171875 6.796875 -7.171875 6.796875 -6.96875 C 6.796875 -6.84375 6.90625 -6.84375 6.984375 -6.84375 C 7.578125 -6.828125 7.703125 -6.609375 7.703125 -6.390625 C 7.703125 -6.359375 7.671875 -6.1875 7.671875 -6.15625 L 6.484375 -1.484375 L 4.171875 -6.96875 C 4.078125 -7.15625 4.078125 -7.171875 3.828125 -7.171875 L 2.421875 -7.171875 C 2.21875 -7.171875 2.125 -7.171875 2.125 -6.96875 C 2.125 -6.84375 2.21875 -6.84375 2.421875 -6.84375 C 2.46875 -6.84375 3.125 -6.84375 3.125 -6.75 L 1.71875 -1.109375 C 1.609375 -0.6875 1.4375 -0.359375 0.59375 -0.328125 C 0.53125 -0.328125 0.40625 -0.3125 0.40625 -0.109375 C 0.40625 -0.046875 0.46875 0 0.546875 0 C 0.875 0 1.25 -0.03125 1.59375 -0.03125 C 1.953125 -0.03125 2.328125 0 2.671875 0 C 2.734375 0 2.859375 0 2.859375 -0.203125 C 2.859375 -0.3125 2.765625 -0.328125 2.65625 -0.328125 C 2.046875 -0.34375 1.96875 -0.578125 1.96875 -0.78125 C 1.96875 -0.859375 1.96875 -0.90625 2 -1.03125 L 3.390625 -6.578125 C 3.4375 -6.515625 3.4375 -6.484375 3.484375 -6.390625 L 6.09375 -0.203125 C 6.171875 -0.015625 6.203125 0 6.296875 0 C 6.421875 0 6.421875 -0.03125 6.46875 -0.21875 Z M 7.9375 -6.0625 "/>
</g>
<g id="glyph-3-0">
<path d="M 2.84375 -2.75 L 3.515625 -2.75 C 3.65625 -2.75 3.75 -2.75 3.75 -2.90625 C 3.75 -3 3.65625 -3 3.53125 -3 L 2.890625 -3 C 3.046875 -3.890625 3.09375 -4.203125 3.15625 -4.40625 C 3.1875 -4.5625 3.34375 -4.703125 3.515625 -4.703125 C 3.515625 -4.703125 3.703125 -4.703125 3.84375 -4.625 C 3.546875 -4.53125 3.53125 -4.28125 3.53125 -4.25 C 3.53125 -4.09375 3.65625 -3.984375 3.8125 -3.984375 C 4 -3.984375 4.203125 -4.140625 4.203125 -4.40625 C 4.203125 -4.734375 3.875 -4.90625 3.515625 -4.90625 C 3.203125 -4.90625 2.859375 -4.734375 2.671875 -4.390625 C 2.53125 -4.125 2.484375 -3.8125 2.328125 -3 L 1.78125 -3 C 1.640625 -3 1.546875 -3 1.546875 -2.84375 C 1.546875 -2.75 1.640625 -2.75 1.765625 -2.75 L 2.28125 -2.75 C 2.28125 -2.703125 1.84375 -0.203125 1.671875 0.546875 C 1.640625 0.703125 1.515625 1.21875 1.1875 1.21875 C 1.171875 1.21875 1.015625 1.21875 0.875 1.140625 C 1.15625 1.046875 1.1875 0.796875 1.1875 0.765625 C 1.1875 0.609375 1.0625 0.5 0.90625 0.5 C 0.71875 0.5 0.515625 0.65625 0.515625 0.921875 C 0.515625 1.234375 0.84375 1.421875 1.1875 1.421875 C 1.625 1.421875 1.9375 0.96875 2.015625 0.8125 C 2.265625 0.34375 2.4375 -0.515625 2.453125 -0.59375 Z M 2.84375 -2.75 "/>
</g>
<g id="glyph-3-1">
<path d="M 2.265625 -4.359375 C 2.265625 -4.46875 2.171875 -4.625 1.984375 -4.625 C 1.796875 -4.625 1.59375 -4.4375 1.59375 -4.234375 C 1.59375 -4.125 1.671875 -3.96875 1.875 -3.96875 C 2.0625 -3.96875 2.265625 -4.171875 2.265625 -4.359375 Z M 0.84375 -0.8125 C 0.8125 -0.71875 0.78125 -0.640625 0.78125 -0.515625 C 0.78125 -0.1875 1.046875 0.0625 1.4375 0.0625 C 2.125 0.0625 2.4375 -0.890625 2.4375 -1 C 2.4375 -1.09375 2.34375 -1.09375 2.328125 -1.09375 C 2.234375 -1.09375 2.21875 -1.046875 2.1875 -0.96875 C 2.03125 -0.40625 1.734375 -0.125 1.453125 -0.125 C 1.3125 -0.125 1.28125 -0.21875 1.28125 -0.375 C 1.28125 -0.53125 1.328125 -0.65625 1.390625 -0.8125 C 1.46875 -1 1.546875 -1.1875 1.609375 -1.375 C 1.671875 -1.546875 1.9375 -2.171875 1.953125 -2.265625 C 1.984375 -2.328125 2 -2.40625 2 -2.484375 C 2 -2.8125 1.71875 -3.078125 1.34375 -3.078125 C 0.640625 -3.078125 0.328125 -2.125 0.328125 -2 C 0.328125 -1.921875 0.421875 -1.921875 0.453125 -1.921875 C 0.546875 -1.921875 0.546875 -1.953125 0.578125 -2.03125 C 0.75 -2.625 1.0625 -2.875 1.3125 -2.875 C 1.421875 -2.875 1.484375 -2.828125 1.484375 -2.640625 C 1.484375 -2.46875 1.453125 -2.375 1.28125 -1.9375 Z M 0.84375 -0.8125 "/>
</g>
<g id="glyph-3-2">
<path d="M 3.0625 -4.359375 C 3.0625 -4.46875 2.96875 -4.625 2.78125 -4.625 C 2.578125 -4.625 2.390625 -4.421875 2.390625 -4.234375 C 2.390625 -4.125 2.46875 -3.96875 2.671875 -3.96875 C 2.859375 -3.96875 3.0625 -4.15625 3.0625 -4.359375 Z M 1.578125 0.34375 C 1.46875 0.828125 1.09375 1.21875 0.6875 1.21875 C 0.59375 1.21875 0.515625 1.21875 0.4375 1.1875 C 0.609375 1.09375 0.671875 0.9375 0.671875 0.828125 C 0.671875 0.65625 0.53125 0.578125 0.390625 0.578125 C 0.1875 0.578125 0 0.765625 0 0.984375 C 0 1.25 0.265625 1.421875 0.6875 1.421875 C 1.109375 1.421875 1.921875 1.171875 2.140625 0.328125 L 2.765625 -2.171875 C 2.78125 -2.25 2.796875 -2.3125 2.796875 -2.421875 C 2.796875 -2.796875 2.46875 -3.078125 2.0625 -3.078125 C 1.28125 -3.078125 0.84375 -2.109375 0.84375 -2 C 0.84375 -1.921875 0.9375 -1.921875 0.953125 -1.921875 C 1.03125 -1.921875 1.046875 -1.9375 1.09375 -2.046875 C 1.265625 -2.453125 1.625 -2.875 2.03125 -2.875 C 2.203125 -2.875 2.265625 -2.765625 2.265625 -2.53125 C 2.265625 -2.453125 2.265625 -2.359375 2.25 -2.328125 Z M 1.578125 0.34375 "/>
</g>
<g id="glyph-3-3">
<path d="M 0.515625 0.84375 C 0.46875 1.046875 0.453125 1.09375 0.1875 1.09375 C 0.09375 1.09375 0 1.09375 0 1.25 C 0 1.328125 0.0625 1.359375 0.09375 1.359375 C 0.265625 1.359375 0.5 1.328125 0.6875 1.328125 C 0.921875 1.328125 1.1875 1.359375 1.421875 1.359375 C 1.484375 1.359375 1.5625 1.328125 1.5625 1.203125 C 1.5625 1.09375 1.46875 1.09375 1.375 1.09375 C 1.21875 1.09375 1.03125 1.09375 1.03125 1.015625 C 1.03125 0.984375 1.09375 0.796875 1.109375 0.703125 C 1.203125 0.328125 1.296875 -0.046875 1.375 -0.34375 C 1.453125 -0.203125 1.671875 0.0625 2.09375 0.0625 C 2.9375 0.0625 3.875 -0.875 3.875 -1.90625 C 3.875 -2.71875 3.3125 -3.078125 2.84375 -3.078125 C 2.40625 -3.078125 2.03125 -2.78125 1.84375 -2.578125 C 1.734375 -2.984375 1.34375 -3.078125 1.125 -3.078125 C 0.859375 -3.078125 0.6875 -2.890625 0.578125 -2.703125 C 0.4375 -2.46875 0.328125 -2.046875 0.328125 -2 C 0.328125 -1.921875 0.421875 -1.921875 0.453125 -1.921875 C 0.546875 -1.921875 0.546875 -1.9375 0.59375 -2.125 C 0.703125 -2.53125 0.84375 -2.875 1.109375 -2.875 C 1.296875 -2.875 1.34375 -2.71875 1.34375 -2.53125 C 1.34375 -2.453125 1.328125 -2.375 1.3125 -2.328125 Z M 1.84375 -2.234375 C 2.25 -2.78125 2.59375 -2.875 2.8125 -2.875 C 3.09375 -2.875 3.328125 -2.671875 3.328125 -2.203125 C 3.328125 -1.921875 3.171875 -1.203125 2.96875 -0.796875 C 2.78125 -0.453125 2.453125 -0.125 2.09375 -0.125 C 1.59375 -0.125 1.46875 -0.65625 1.46875 -0.734375 C 1.46875 -0.765625 1.484375 -0.8125 1.484375 -0.84375 Z M 1.84375 -2.234375 "/>
</g>
<g id="glyph-4-0">
<path d="M 3.59375 -2.21875 C 3.59375 -2.984375 3.5 -3.546875 3.1875 -4.03125 C 2.96875 -4.34375 2.53125 -4.625 1.984375 -4.625 C 0.359375 -4.625 0.359375 -2.71875 0.359375 -2.21875 C 0.359375 -1.71875 0.359375 0.140625 1.984375 0.140625 C 3.59375 0.140625 3.59375 -1.71875 3.59375 -2.21875 Z M 1.984375 -0.0625 C 1.65625 -0.0625 1.234375 -0.25 1.09375 -0.8125 C 1 -1.21875 1 -1.796875 1 -2.3125 C 1 -2.828125 1 -3.359375 1.09375 -3.734375 C 1.25 -4.28125 1.6875 -4.4375 1.984375 -4.4375 C 2.359375 -4.4375 2.71875 -4.203125 2.84375 -3.796875 C 2.953125 -3.421875 2.96875 -2.921875 2.96875 -2.3125 C 2.96875 -1.796875 2.96875 -1.28125 2.875 -0.84375 C 2.734375 -0.203125 2.265625 -0.0625 1.984375 -0.0625 Z M 1.984375 -0.0625 "/>
</g>
</g>
</defs>
<g fill="rgb(0%, 0%, 0%)" fill-opacity="1">
<use xlink:href="#glyph-0-0" x="5.924" y="13.556"/>
</g>
<g fill="rgb(0%, 0%, 0%)" fill-opacity="1">
<use xlink:href="#glyph-1-0" x="72.028" y="13.556"/>
<use xlink:href="#glyph-1-1" x="77.572" y="13.556"/>
<use xlink:href="#glyph-1-2" x="82.234" y="13.556"/>
</g>
<g fill="rgb(0%, 0%, 0%)" fill-opacity="1">
<use xlink:href="#glyph-2-0" x="88.1" y="13.556"/>
</g>
<g fill="rgb(0%, 0%, 0%)" fill-opacity="1">
<use xlink:href="#glyph-2-1" x="152.834" y="13.556"/>
</g>
<g fill="rgb(0%, 0%, 0%)" fill-opacity="1">
<use xlink:href="#glyph-2-2" x="4.524" y="68.266"/>
</g>
<g fill="rgb(0%, 0%, 0%)" fill-opacity="1">
<use xlink:href="#glyph-2-3" x="153.709" y="68.266"/>
</g>
<path fill="none" stroke-width="0.41998" stroke-linecap="butt" stroke-linejoin="miter" stroke="rgb(0%, 0%, 0%)" stroke-opacity="1" stroke-miterlimit="10" d="M -68.443656 26.337312 L -17.459281 26.337312 " transform="matrix(1, 0, 0, -1, 84.346, 37.267)"/>
<path fill="none" stroke-width="0.41998" stroke-linecap="round" stroke-linejoin="round" stroke="rgb(0%, 0%, 0%)" stroke-opacity="1" stroke-miterlimit="10" d="M -2.184734 2.519994 C -1.786296 1.008275 -0.895671 0.293431 -0.00114 0.0004625 C -0.895671 -0.292506 -1.786296 -1.00735 -2.184734 -2.519069 " transform="matrix(1, 0, 0, -1, 67.09489, 10.93015)"/>
<g fill="rgb(0%, 0%, 0%)" fill-opacity="1">
<use xlink:href="#glyph-3-0" x="39.271" y="7.101"/>
</g>
<path fill="none" stroke-width="0.41998" stroke-linecap="butt" stroke-linejoin="miter" stroke="rgb(0%, 0%, 0%)" stroke-opacity="1" stroke-miterlimit="10" d="M -75.795219 19.665437 L -75.795219 -19.358 " transform="matrix(1, 0, 0, -1, 84.346, 37.267)"/>
<path fill="none" stroke-width="0.41998" stroke-linecap="round" stroke-linejoin="round" stroke="rgb(0%, 0%, 0%)" stroke-opacity="1" stroke-miterlimit="10" d="M -2.182516 2.519063 C -1.784079 1.007344 -0.89736 0.2925 0.0010775 -0.00046875 C -0.89736 -0.293437 -1.784079 -1.008281 -2.182516 -2.52 " transform="matrix(0, 1, 1, 0, 8.55125, 56.83486)"/>
<g fill="rgb(0%, 0%, 0%)" fill-opacity="1">
<use xlink:href="#glyph-3-1" x="3.26" y="39.63"/>
</g>
<path fill="none" stroke-width="0.41998" stroke-linecap="butt" stroke-linejoin="miter" stroke="rgb(0%, 0%, 0%)" stroke-opacity="1" stroke-miterlimit="10" d="M 15.275094 26.337312 L 63.345406 26.337312 " transform="matrix(1, 0, 0, -1, 84.346, 37.267)"/>
<path fill="none" stroke-width="0.41998" stroke-linecap="round" stroke-linejoin="miter" stroke="rgb(0%, 0%, 0%)" stroke-opacity="1" stroke-miterlimit="10" d="M 0.00034625 2.059056 C 0.719096 2.059056 1.301128 1.598119 1.301128 1.027806 C 1.301128 0.4614 0.719096 0.0004625 0.00034625 0.0004625 " transform="matrix(-1, 0, 0, -1, 99.62144, 10.93015)"/>
<path fill="none" stroke-width="0.41998" stroke-linecap="round" stroke-linejoin="round" stroke="rgb(0%, 0%, 0%)" stroke-opacity="1" stroke-miterlimit="10" d="M -2.18272 2.519994 C -1.784283 1.008275 -0.897564 0.293431 0.00087375 0.0004625 C -0.897564 -0.292506 -1.784283 -1.00735 -2.18272 -2.519069 " transform="matrix(1, 0, 0, -1, 147.90147, 10.93015)"/>
<g fill="rgb(0%, 0%, 0%)" fill-opacity="1">
<use xlink:href="#glyph-3-2" x="121.261" y="7.101"/>
</g>
<path fill="none" stroke-width="0.41998" stroke-linecap="butt" stroke-linejoin="miter" stroke="rgb(0%, 0%, 0%)" stroke-opacity="1" stroke-miterlimit="10" d="M 74.154 19.665437 L 74.154 -19.358 " transform="matrix(1, 0, 0, -1, 84.346, 37.267)"/>
<path fill="none" stroke-width="0.41998" stroke-linecap="round" stroke-linejoin="round" stroke="rgb(0%, 0%, 0%)" stroke-opacity="1" stroke-miterlimit="10" d="M -2.182295 2.521498 C -1.783857 1.009779 -0.897139 0.294935 0.00129875 -0.00194 C -0.897139 -0.294909 -1.783857 -1.009752 -2.182295 -2.521471 " transform="matrix(0, 1, 1, 0, 158.50194, 55.32292)"/>
<path fill="none" stroke-width="0.41998" stroke-linecap="round" stroke-linejoin="round" stroke="rgb(0%, 0%, 0%)" stroke-opacity="1" stroke-miterlimit="10" d="M -2.182516 2.521498 C -1.784079 1.009779 -0.89736 0.294935 0.0010775 -0.00194 C -0.89736 -0.294909 -1.784079 -1.009752 -2.182516 -2.521471 " transform="matrix(0, 1, 1, 0, 158.50194, 56.83486)"/>
<g fill="rgb(0%, 0%, 0%)" fill-opacity="1">
<use xlink:href="#glyph-3-3" x="151.922" y="38.146"/>
</g>
<path fill="none" stroke-width="0.41998" stroke-linecap="butt" stroke-linejoin="miter" stroke="rgb(0%, 0%, 0%)" stroke-opacity="1" stroke-dasharray="2.93988 1.67993" stroke-miterlimit="10" d="M -67.041313 -21.9205 L -13.7835 17.376375 " transform="matrix(1, 0, 0, -1, 84.346, 37.267)"/>
<path fill="none" stroke-width="0.41998" stroke-linecap="round" stroke-linejoin="round" stroke="rgb(0%, 0%, 0%)" stroke-opacity="1" stroke-miterlimit="10" d="M -2.182639 2.520344 C -1.783954 1.007744 -0.897011 0.295154 0.00225995 0.000662884 C -0.894706 -0.293938 -1.784468 -1.006484 -2.18194 -2.519116 " transform="matrix(0.80467, -0.59364, -0.59364, -0.80467, 70.73295, 19.7675)"/>
<path fill="none" stroke-width="0.41998" stroke-linecap="butt" stroke-linejoin="miter" stroke="rgb(0%, 0%, 0%)" stroke-opacity="1" stroke-dasharray="2.93988 1.67993" stroke-miterlimit="10" d="M -67.041313 -25.186125 L 63.37275 22.403719 " transform="matrix(1, 0, 0, -1, 84.346, 37.267)"/>
<path fill="none" stroke-width="0.41998" stroke-linecap="round" stroke-linejoin="round" stroke="rgb(0%, 0%, 0%)" stroke-opacity="1" stroke-miterlimit="10" d="M -2.183133 2.518665 C -1.785689 1.009697 -0.895075 0.29381 0.0000233493 0.000435921 C -0.896741 -0.291906 -1.785641 -1.007109 -2.184179 -2.520847 " transform="matrix(0.93938, -0.3428, -0.3428, -0.93938, 147.91419, 14.78948)"/>
<path fill="none" stroke-width="0.41998" stroke-linecap="butt" stroke-linejoin="miter" stroke="rgb(0%, 0%, 0%)" stroke-opacity="1" stroke-miterlimit="10" d="M -67.041313 -28.373625 L 64.220406 -28.373625 " transform="matrix(1, 0, 0, -1, 84.346, 37.267)"/>
<path fill="none" stroke-width="0.41998" stroke-linecap="round" stroke-linejoin="round" stroke="rgb(0%, 0%, 0%)" stroke-opacity="1" stroke-miterlimit="10" d="M -2.18275 2.519766 C -1.784312 1.008047 -0.897594 0.293204 0.00084375 0.000235 C -0.897594 -0.292734 -1.784312 -1.007578 -2.18275 -2.519296 " transform="matrix(1, 0, 0, -1, 148.7765, 65.64086)"/>
<g fill="rgb(0%, 0%, 0%)" fill-opacity="1">
<use xlink:href="#glyph-4-0" x="81.159" y="72.608"/>
</g>
</svg>
